<?xml version="1.0" encoding="UTF-8" standalone="no"?>
<svg
   data-name="Layer 1"
   width="670.76697"
   height="822.06689"
   viewBox="0 0 670.76698 822.06689"
   version="1.1"
   id="svg16531"
   sodipodi:docname="undraw_gdpr_-3-xfb.svg"
   inkscape:version="1.1.2 (0a00cf5339, 2022-02-04)"
   xmlns:inkscape="http://www.inkscape.org/namespaces/inkscape"
   xmlns:sodipodi="http://sodipodi.sourceforge.net/DTD/sodipodi-0.dtd"
   xmlns:xlink="http://www.w3.org/1999/xlink"
   xmlns="http://www.w3.org/2000/svg"
   xmlns:svg="http://www.w3.org/2000/svg"
   xmlns:rdf="http://www.w3.org/1999/02/22-rdf-syntax-ns#"
   xmlns:cc="http://creativecommons.org/ns#"
   xmlns:dc="http://purl.org/dc/elements/1.1/">
  <sodipodi:namedview
     id="namedview16533"
     pagecolor="#ffffff"
     bordercolor="#666666"
     borderopacity="1.0"
     inkscape:pageshadow="2"
     inkscape:pageopacity="0.0"
     inkscape:pagecheckerboard="0"
     showgrid="false"
     inkscape:zoom="0.72430353"
     inkscape:cx="421.7845"
     inkscape:cy="443.87468"
     inkscape:window-width="1920"
     inkscape:window-height="1056"
     inkscape:window-x="1920"
     inkscape:window-y="1080"
     inkscape:window-maximized="1"
     inkscape:current-layer="svg16531" />
  <defs
     id="defs16397">
    <linearGradient
       id="0bbb0783-00db-46b0-92e3-e6ca2c0b643f-913"
       x1="436.85999"
       y1="827.5"
       x2="436.85999"
       y2="266.81"
       gradientUnits="userSpaceOnUse">
      <stop
         offset="0"
         stop-color="gray"
         stop-opacity="0.25"
         id="stop16388" />
      <stop
         offset="0.54"
         stop-color="gray"
         stop-opacity="0.12"
         id="stop16390" />
      <stop
         offset="1"
         stop-color="gray"
         stop-opacity="0.1"
         id="stop16392" />
    </linearGradient>
    <linearGradient
       id="307dda9f-981d-4ff4-9930-3a0d53b6cae3-914"
       x1="729.54999"
       y1="449.32999"
       x2="729.54999"
       y2="-37.389999"
       gradientTransform="rotate(-34.67,715.20675,659.82509)"
       xlink:href="#0bbb0783-00db-46b0-92e3-e6ca2c0b643f-913" />
    <linearGradient
       id="7f05ddf0-0286-4412-8910-1e0b2c479f08-915"
       x1="752.35999"
       y1="126.67"
       x2="752.35999"
       y2="59.43"
       gradientTransform="rotate(-34.67,715.20675,659.82509)"
       xlink:href="#0bbb0783-00db-46b0-92e3-e6ca2c0b643f-913" />
    <linearGradient
       inkscape:collect="always"
       xlink:href="#0bbb0783-00db-46b0-92e3-e6ca2c0b643f-913"
       id="linearGradient26349"
       gradientUnits="userSpaceOnUse"
       x1="436.85999"
       y1="827.5"
       x2="436.85999"
       y2="266.81"
       gradientTransform="translate(-178.23014,-5.4381551)" />
  </defs>
  <title
     id="title16399">gdpr</title>
  <path
     d="m 362.53986,467.65184 a 15.42,15.42 0 0 1 1.46,-0.66 c 0,0 -41.23,-23.23 -52.71,-29.68 a 96.8,96.8 0 0 1 -11.84,-8.33 c 14.34,-5.2 34.4,-14.49 45,-28.44 0,0 -3,-2.5 -6.85,-6.13 l 4.14,-4.84 c 0,0 21.62,-17.42 6.76,-26.45 -12.08,-7.34 -19.7,12.15 -22.13,19.72 l -0.85,-1 c 0,0 -23.26,35.53 -54.63,17.86 a 43,43 0 0 1 -4.84,-8.83 39.93,39.93 0 0 0 -11,-15.42 l -3.19,-12.33 -5.69,-4.69 c 0,-6.74 0.22,-14.85 1,-22 q 0.07,-0.68 0.15,-1.35 c 11,-4.37 18.76,-14.73 18.76,-26.82 a 27.82,27.82 0 0 0 -2.84,-12.26 c 4.45,-5.09 7.68,-12 6.72,-18 -0.75,-4.65 -4.72,-7.68 -9.48,-9.82 -4.58,-2.32 -10.18,-3.68 -14.37,-4.82 -7.71,-2.09 -16.13,-3.08 -23.63,-0.37 -12.4,4.47 -20.06,9.62 -29.7,18.31 -7.62,6.87 -16,18.83 -25,24 -9,5.17 -17.81,11.87 -21.3,21.26 -4.92,13.28 1.82,27.55 4.86,41.33 a 79.42,79.42 0 0 1 -3.82,46.43 c -5.9,14.75 -16.45,29.16 -13.86,44.75 2,11.84 11.37,21 22.9,26.29 a 57.8,57.8 0 0 0 16.21,5.2 c 9.71,1.59 20.08,1.08 29.05,-2.59 a 107.73,107.73 0 0 1 -16.21,30 c -6.65,8.46 -6,13.06 -0.12,13.5 q -0.31,1.19 -0.58,2.53 c -1.91,9.37 -2.52,24.7 0.7,49.78 8.11,63.23 -9.46,82.58 -9.46,82.58 0,0 1.88,0.66 5.28,1.64 q -0.21,0.57 -0.42,1.17 c -3.72,10.56 -7.24,29.16 -0.12,54 7.67,26.7 9.92,39 10.57,44.28 v 0.31 c -0.77,0.3 -3.57,1.63 -5.63,5.78 a 16.42,16.42 0 0 0 2.46,18 v 24.5 h 3.38 v -20.65 a 58.32,58.32 0 0 1 7.57,11.51 26.11,26.11 0 0 0 20.14,14.26 c 8.7,1.18 18.3,1.61 22.3,-1.26 0,0 3,-5.65 -11.35,-12.5 l -0.12,-0.18 c -4.72,-6.88 -12,-18.82 -13.1,-28.19 a 78.33,78.33 0 0 0 -3.7,-16.89 v 0 a 49.62,49.62 0 0 1 -2.64,-12.75 c -1,-13.29 -2.74,-42.42 -0.16,-48.85 1.74,-4.33 2.77,-15.2 3.35,-24.7 0,-0.43 0.05,-0.86 0.08,-1.28 a 188.88,188.88 0 0 0 45.23,0.33 v 6.3 c 0,0 -6.08,19.36 6.08,47.1 0,0 16.49,25.19 20.22,40.07 q 0.16,0.64 0.29,1.25 c -2.21,0.26 -11.95,2.55 -8.34,23.19 l -0.68,27.1 h 3.38 l 0.68,-23.87 c 0,0 3.38,-5.81 14.87,6.45 q 2.61,2.79 4.72,5.17 a 41.93,41.93 0 0 0 32.82,13.84 c 7.38,-0.26 14.43,-1 17.19,-2.88 0,0 6.76,-5.16 -10.14,-7.74 l -7.78,-2.31 h -0.29 l -1.11,-1.24 c -5.9,-6.68 -14.47,-18 -16.66,-29.5 a 53,53 0 0 0 -3.66,-11.52 l -6.32,-14.22 -14.87,-76.06 c 0,0 0.78,-3.34 1.54,-7.43 0.08,-0.45 0.17,-0.92 0.25,-1.38 l 2.26,-0.87 c 0,0 13.52,-9.68 -6.76,-68.39 0,0 -7.88,-32.7 -11.87,-58.75 l 9.84,-1.89 c 0,0 -1.52,-23 -4.55,-39 2,-7.5 3.1,-14 1.85,-17.18 a 29.93,29.93 0 0 1 -1.72,-9 206.09,206.09 0 0 0 -2.23,-20.71 l 12.73,9 64.2,31 c -2.46,-5.06 -2.85,-9.21 -2.14,-12.56 4.68,6.69 17.1,21.62 27.82,9.33 10.94,-12.43 -9.96,-18.63 -18.35,-20.54 z"
     fill="url(#0bbb0783-00db-46b0-92e3-e6ca2c0b643f-913)"
     id="path16403"
     style="fill:url(#linearGradient26349)" />
  <path
     d="m 353.39986,467.86184 c 0,0 33.09,5.73 20.36,21 -12.73,15.27 -28,-12.09 -28,-12.09 z"
     fill="#f8bdc5"
     id="path16405" />
  <path
     d="m 243.30986,369.23184 c 0,0 16.54,7.64 22.27,23.54 5.73,15.9 31.82,39.45 42.63,45.82 10.81,6.37 49.63,29.27 49.63,29.27 0,0 -16.54,6.36 -8.27,24.18 l -60.45,-30.54 -27.35,-20.36 z"
     fill="#575988"
     id="path16407" />
  <path
     d="m 243.30986,369.23184 c 0,0 16.54,7.64 22.27,23.54 5.73,15.9 31.82,39.45 42.63,45.82 10.81,6.37 49.63,29.27 49.63,29.27 0,0 -16.54,6.36 -8.27,24.18 l -60.45,-30.54 -27.35,-20.36 z"
     opacity="0.1"
     id="path16409" />
  <path
     d="m 500.01986,2.4618449 c 0,0 -72.88,-26.6199999 -150.38,95.2100001 0,0 -32.58,67.999995 -105.38,67.729995 l -7.8,-17.78 -14.69,5.77 197,450 14.86,-4.77 -92.78,-213.14 c 30.78,-2.36 99.37,-24.52 161.93,-162.65 0,0 56.2,-104.9 138.5,-92.5 z"
     fill="url(#307dda9f-981d-4ff4-9930-3a0d53b6cae3-914)"
     id="path16411"
     style="fill:url(#307dda9f-981d-4ff4-9930-3a0d53b6cae3-914)" />
  <path
     d="m 232.27986,167.36184 95.49,215.94 c 0,0 92.6,22.6 174.6,-158.44 0,0 55,-102.61 135.48,-90.48 L 499.70986,9.2918449 c 0,0 -71.3,-25.9999999 -147.1,93.1399951 -0.01,0 -36.99,77.25 -120.33,64.93 z"
     fill="#5d76b7"
     id="path16413" />
  <polygon
     points="431.33,164.25 441.74,162.97 445.63,174.81 448.71,161.37 458.4,160.59 449.81,153.62 451.8,140.94 444.21,149.42 435.62,142.44 440.26,155.38 "
     fill="#ffd037"
     id="polygon16415"
     transform="translate(-81.720142,-0.00815514)" />
  <polygon
     points="451.42,125.6 460.71,123.47 465.69,134.56 466.93,120.79 477.09,119.14 468.28,113.4 470.16,101.33 463.91,109.42 455.1,103.68 459.23,115.89 "
     fill="#ffd037"
     id="polygon16417"
     transform="translate(-81.720142,-0.00815514)" />
  <polygon
     points="481.33,101.14 490.49,98.04 494.96,108.4 497.93,95.58 508.46,93.68 498.66,88.07 502,75 493.82,84.96 484.53,80.09 489,90.45 "
     fill="#ffd037"
     id="polygon16419"
     transform="translate(-81.720142,-0.00815514)" />
  <polygon
     points="512.6,98.89 523.24,96.37 527.35,106.98 530.69,93.91 541.47,92.38 532.68,88.23 535.76,74.79 526.72,84.28 517.42,79.4 521.9,89.76 "
     fill="#ffd037"
     id="polygon16421"
     transform="translate(-81.720142,-0.00815514)" />
  <polygon
     points="539.95,118.19 550.59,115.67 554.7,126.28 558.03,113.21 568.81,111.68 560.02,107.53 563.11,94.09 554.06,103.58 544.77,98.7 549.24,109.06 "
     fill="#ffd037"
     id="polygon16423"
     transform="translate(-81.720142,-0.00815514)" />
  <polygon
     points="554.58,147.9 565.21,145.38 569.33,155.99 572.66,142.92 583.44,141.39 574.65,137.24 577.74,123.8 568.69,133.29 559.4,128.41 563.87,138.77 "
     fill="#ffd037"
     id="polygon16425"
     transform="translate(-81.720142,-0.00815514)" />
  <polygon
     points="548.48,200.56 559.2,195.83 563.79,205.57 566.01,191.66 577.35,187.04 567.33,182.67 569.43,169.38 562.6,178.95 552.35,175.81 557.33,186.9 "
     fill="#ffd037"
     id="polygon16427"
     transform="translate(-81.720142,-0.00815514)" />
  <polygon
     points="532.42,245.03 542.78,240.56 547.14,251.54 549.22,236.64 558.96,232.06 550.17,227.91 552.5,213.38 545.19,223.82 536.29,220.29 540.18,232.13 "
     fill="#ffd037"
     id="polygon16429"
     transform="translate(-81.720142,-0.00815514)" />
  <polygon
     points="500.21,271.62 509.5,269.49 513.62,280.11 516.7,266.67 526.33,262.7 518.75,257.18 520.83,242.29 513.77,253.09 505.57,247.46 509.59,260.28 "
     fill="#ffd037"
     id="polygon16431"
     transform="translate(-81.720142,-0.00815514)" />
  <polygon
     points="467.7,273.65 477.64,273.23 480.52,283.62 484.36,271.27 495.25,269.12 487.28,262.26 489.16,250.19 482.05,257.81 473.85,252.18 477.51,265.25 "
     fill="#ffd037"
     id="polygon16433"
     transform="translate(-81.720142,-0.00815514)" />
  <polygon
     points="436.83,249.25 449.49,249.65 451.92,262.5 456.71,248.42 468.61,247.72 459.66,241 463.44,225.46 452.8,234.98 445.07,228.48 448.85,240.94 "
     fill="#ffd037"
     id="polygon16435"
     transform="translate(-81.720142,-0.00815514)" />
  <polygon
     points="425.54,206.47 438.2,206.86 440.63,219.72 445.42,205.63 457.32,204.94 448.36,198.22 452.15,182.68 441.51,192.19 433.78,185.7 437.56,198.16 "
     fill="#ffd037"
     id="polygon16437"
     transform="translate(-81.720142,-0.00815514)" />
  <path
     d="m 458.44986,177.70184 -22,-24.47 a 3.83,3.83 0 0 0 -5.41,-0.29 l -1.77,1.62 -9.2,-10.25 a 9.75,9.75 0 0 0 -13.77,-0.74 l -12,10.77 a 9.75,9.75 0 0 0 -0.74,13.77 l 9.2,10.25 -1.79,1.61 a 3.83,3.83 0 0 0 -0.29,5.41 l 22,24.47 a 3.83,3.83 0 0 0 5.41,0.29 l 30.08,-27 a 3.83,3.83 0 0 0 0.28,-5.44 z m -60.61,-10.14 a 9.75,9.75 0 0 1 0.74,-13.77 l 6.75,-6.06 a 9.75,9.75 0 0 1 13.77,0.74 l 7.55,8.41 -21.26,19.08 z m 34.08,13.86 3.56,4 a 2.1455186,2.1455186 0 1 1 -3.19,2.87 l -3.76,-4.19 a 5.2,5.2 0 1 1 3.39,-2.65 z"
     fill="url(#7f05ddf0-0286-4412-8910-1e0b2c479f08-915)"
     id="path16439"
     style="fill:url(#7f05ddf0-0286-4412-8910-1e0b2c479f08-915)" />
  <path
     d="m 407.07986,145.01184 -11.39,10.23 a 9.26,9.26 0 0 0 -0.7,13.08 l 9.65,10.75 2.49,-2.24 -8.08,-9 a 9.26,9.26 0 0 1 0.7,-13.08 l 6.41,-5.75 a 9.26,9.26 0 0 1 13.08,0.7 l 8.08,9 2.49,-2.24 -9.65,-10.75 a 9.26,9.26 0 0 0 -13.08,-0.7 z"
     fill="#f0f5fa"
     id="path16441" />
  <path
     d="m 430.58986,153.93184 -28.57,25.63 a 3.64,3.64 0 0 0 -0.28,5.14 l 20.87,23.24 a 3.64,3.64 0 0 0 5.14,0.28 l 28.58,-25.66 a 3.64,3.64 0 0 0 0.28,-5.14 l -20.84,-23.21 a 3.64,3.64 0 0 0 -5.18,-0.28 z m 0.81,27.05 3.38,3.77 a 2.0247469,2.0247469 0 1 1 -3,2.72 l -3.57,-4 a 4.94,4.94 0 1 1 3.22,-2.51 z"
     fill="#f0f5fa"
     id="path16443" />
  <polygon
     points="515.75,590.83 323.61,151.3 309.21,156.95 501.22,595.5 "
     fill="#f0f5fa"
     id="polygon16445"
     transform="translate(-81.720142,-0.00815514)" />
  <path
     d="m 321.57986,387.68184 c 0,0 7.64,-31.18 21.64,-22.27 14,8.91 -6.36,26.09 -6.36,26.09 l -5.73,7 z"
     fill="#f8bdc5"
     id="path16447" />
  <polygon
     points="337,377.84 332.03,374.96 332.03,365.42 326.68,364.78 326.69,359.16 333.94,365.42 "
     fill="#dedff7"
     id="polygon16449"
     transform="translate(-81.720142,-0.00815514)" />
  <polygon
     points="337,377.84 332.03,374.96 332.03,365.42 326.68,364.78 326.69,359.16 333.94,365.42 "
     opacity="0.1"
     id="polygon16451"
     transform="translate(-81.720142,-0.00815514)" />
  <path
     d="m 266.53986,485.04184 4.23,54.73 12.65,-2.55 c 0,0 -2.81,-44.54 -8.43,-52.18 -5.62,-7.64 -8.45,0 -8.45,0 z"
     fill="#575988"
     id="path16453" />
  <path
     d="m 266.53986,485.04184 4.23,54.73 12.65,-2.55 c 0,0 -2.81,-44.54 -8.43,-52.18 -5.62,-7.64 -8.45,0 -8.45,0 z"
     opacity="0.1"
     id="path16455" />
  <path
     d="m 235.66986,808.94184 -20.36,3.18 -11.45,-8.91 -8.27,-26.09 v -9.56 a 21.06,21.06 0 0 0 -0.23,-3.42 c -0.61,-5.17 -2.73,-17.33 -10,-43.67 -6.71,-24.47 -3.39,-42.81 0.11,-53.22 a 47.11,47.11 0 0 1 4.34,-9.77 h 27.36 c 0,0 -0.15,7.59 -0.66,16.36 -0.55,9.37 -1.51,20.1 -3.16,24.37 -2.44,6.34 -0.77,35.07 0.15,48.18 a 51,51 0 0 0 2.49,12.56 v 0 a 80.4,80.4 0 0 1 3.49,16.66 c 1,9.25 7.89,21 12.33,27.81 2.26,3.38 3.86,5.52 3.86,5.52 z"
     fill="#f8bdc5"
     id="path16457" />
  <path
     d="m 332.39986,809.56184 -8.91,2.55 -17.18,-7 -21.64,-22.9 v -12.72 a 24.28,24.28 0 0 0 -0.69,-4.38 c -3.51,-14.68 -19,-39.52 -19,-39.52 -11.45,-27.36 -5.73,-46.45 -5.73,-46.45 v -19.74 c 0,0 29.91,-10.18 31.18,-6.36 0.71,2.14 -0.18,8.51 -1.09,13.67 -0.72,4 -1.45,7.32 -1.45,7.32 l 14,75.09 5.95,14 a 54,54 0 0 1 3.44,11.36 c 2.07,11.31 10.14,22.5 15.69,29.09 3.1,3.75 5.43,5.99 5.43,5.99 z"
     fill="#f8bdc5"
     id="path16459" />
  <path
     d="m 235.66986,808.94184 -20.36,3.18 -11.45,-8.91 -8.27,-26.09 v -9.56 a 21.06,21.06 0 0 0 -0.23,-3.42 4.76,4.76 0 0 1 0.87,-0.4 c 0,0 2.55,9.55 1.27,14 -1,3.55 7.67,16.81 11.24,22 a 15.07,15.07 0 0 0 7.33,5.82 c 6.95,2.46 13.62,-0.86 15.8,-2.14 2.2,3.38 3.8,5.52 3.8,5.52 z"
     opacity="0.1"
     id="path16461" />
  <path
     d="m 231.97986,803.56184 c 0,0 -8.06,5.62 -16.55,2.61 a 15.06,15.06 0 0 1 -7.33,-5.78 c -3.57,-5.23 -12.26,-18.49 -11.24,-22 1.27,-4.45 -1.27,-14 -1.27,-14 0,0 -3.23,1 -5.5,5.78 a 16.81,16.81 0 0 0 2.32,17.78 v 24.16 h 3.18 v -20.34 a 57.84,57.84 0 0 1 7.13,11.35 24.67,24.67 0 0 0 19,14.06 c 8.19,1.16 17.23,1.59 21,-1.24 -0.05,0 2.75,-5.57 -10.74,-12.38 z"
     fill="#575988"
     id="path16463" />
  <path
     d="m 332.39986,809.56184 -8.91,2.55 -17.18,-7 -21.64,-22.9 v -12.72 a 24.28,24.28 0 0 0 -0.69,-4.38 4.71,4.71 0 0 1 0.69,-0.07 c 0,3.31 5.64,11.19 9.6,16.3 a 99.84,99.84 0 0 1 5.77,8.35 c 8.24,13.28 22.51,14 26.9,13.92 3.13,3.71 5.46,5.95 5.46,5.95 z"
     opacity="0.1"
     id="path16465" />
  <path
     d="m 284.66986,766.30184 c 0,0 -12.09,0 -8.27,22.91 l -0.63,26.73 h 3.18 l 0.64,-23.54 c 0,0 3.18,-5.73 14,6.36 q 2.46,2.75 4.45,5.1 a 38.65,38.65 0 0 0 30.91,13.65 c 6.94,-0.26 13.59,-1 16.19,-2.84 0,0 6.36,-5.09 -9.55,-7.64 l -7.32,-2.23 c 0,0 -18.39,2 -28.22,-13.85 a 98.87,98.87 0 0 0 -5.78,-8.39 c -3.95,-5.07 -9.6,-12.95 -9.6,-16.26 z"
     fill="#575988"
     id="path16467" />
  <path
     d="m 189.85986,657.49184 h 27.36 c 0,0 -0.15,7.59 -0.66,16.36 a 193.24,193.24 0 0 1 -31,-6.59 47.11,47.11 0 0 1 4.3,-9.77 z"
     opacity="0.1"
     id="path16469" />
  <path
     d="m 289.29986,666.71184 a 126.66,126.66 0 0 1 -30.09,7.48 v -14.79 c 0,0 29.91,-10.18 31.18,-6.36 0.72,2.14 -0.17,8.52 -1.09,13.67 z"
     opacity="0.1"
     id="path16471" />
  <path
     d="m 291.66986,664.49184 c -52.18,21.64 -110.72,0 -110.72,0 0,0 16.54,-19.09 8.91,-81.45 -3,-24.73 -2.46,-39.85 -0.66,-49.1 2.73,-14.07 8.29,-14.53 8.29,-14.53 l 75.09,-8.91 c -0.67,2.55 -0.71,6.85 -0.34,12.2 1.79,25.34 13.06,74.34 13.06,74.34 19.1,57.91 6.37,67.45 6.37,67.45 z"
     fill="#575988"
     id="path16473" />
  <path
     d="m 251.57986,323.41184 c -1.94,2.91 -3.11,8.85 -3.81,15.69 -1.57,15.58 -0.65,35.85 -0.65,35.85 0,0 -38.82,21 -29.91,-6.36 a 68.36,68.36 0 0 0 -4.44,-50.9 c 0,0 45.18,-3.82 38.81,5.72 z"
     fill="#f8bdc5"
     id="path16475" />
  <path
     d="m 251.57986,323.41184 c -1.94,2.91 -3.11,8.85 -3.81,15.69 a 28.64,28.64 0 0 1 -29,-4.4 65.09,65.09 0 0 0 -6,-17 c 0,0 45.18,-3.83 38.81,5.71 z"
     opacity="0.1"
     id="path16477" />
  <circle
     cx="236.93987"
     cy="311.32184"
     r="28.639999"
     fill="#f8bdc5"
     id="circle16479" />
  <path
     d="m 272.23986,522.70184 c -3.49,9.58 -6.66,17.07 -6.66,17.07 0,0 -29.91,-25.46 -52.81,-13.36 -10.81,5.7 -19.06,8.15 -23.56,7.53 2.73,-14.07 8.29,-14.53 8.29,-14.53 l 75.09,-8.91 c -0.68,2.55 -0.72,6.84 -0.35,12.2 z"
     opacity="0.1"
     id="path16481" />
  <path
     d="m 265.57986,537.22184 c 0,0 -29.91,-25.45 -52.81,-13.36 -22.9,12.09 -34.36,9.55 -22.91,-5.73 11.45,-15.28 26.73,-47.73 15.27,-71.91 -11.46,-24.18 -15.91,-62.36 -7,-72.54 8.91,-10.18 17.18,-21.64 17.18,-24.18 0,0 32.45,23.54 38.82,33.09 1.83,2.74 4.82,9.74 8.14,18.33 1.79,4.64 3.69,9.74 5.56,14.88 a 189.19,189.19 0 0 1 7.1,24.7 208.84,208.84 0 0 1 4.31,32.5 30.76,30.76 0 0 0 1.62,8.86 c 3.81,10.18 -15.28,55.36 -15.28,55.36 z"
     fill="#575988"
     id="path16483" />
  <path
     d="m 252.21986,366.05184 -0.75,13.28 -36.74,-28 c 0,0 -0.7,-5.62 8.85,0.1 9.55,5.72 28.64,14.62 28.64,14.62 z"
     fill="#dedff7"
     id="path16485" />
  <path
     d="m 274.91986,440.50184 c -33.61,0.62 -71.7,-36.91 -71.7,-36.91 -13.36,-35.63 31.82,-28 31.82,-28 0,0 3.72,9.58 27.23,25.33 1.79,4.64 3.69,9.74 5.56,14.88 a 189.19,189.19 0 0 1 7.09,24.7 z"
     opacity="0.1"
     id="path16487" />
  <path
     d="m 203.21986,399.14184 c 0,0 43.27,42.63 78.27,36.27 0,0 41.36,-10.18 57.91,-33.09 0,0 -10.82,-9.55 -17.82,-18.45 0,0 -22.27,35.63 -52.18,17.18 -29.91,-18.45 -34.36,-29.91 -34.36,-29.91 0,0 -45.18,-7.64 -31.82,28 z"
     fill="#575988"
     id="path16489" />
  <path
     d="m 248.04986,267.69184 c -7.26,-2.06 -15.19,-3 -22.25,-0.37 -11.68,4.41 -18.89,9.49 -28,18.06 -7.18,6.77 -15.08,18.57 -23.53,23.65 -8.45,5.08 -16.71,11.7 -20,21 -4.63,13.1 1.71,27.17 4.58,40.76 a 81.81,81.81 0 0 1 -3.6,45.79 c -5.56,14.54 -15.49,28.76 -13,44.14 2.61,16.45 19.12,27.61 35.53,30.42 11.18,1.92 23.28,0.74 32.78,-5.44 a 20,20 0 0 0 6.6,-6.5 c 4.05,-7 1.39,-15.81 -1.11,-23.51 -5.12,-15.77 -9.16,-31.87 -13.21,-47.95 -2.36,-9.39 -4.7,-19.46 -1.36,-28.55 3.26,-8.87 11.39,-15.08 19.89,-19.22 3.33,-1.62 6.88,-3.08 9.38,-5.8 a 16.13,16.13 0 0 0 3.13,-5.31 c 4.28,-11.41 -0.52,-26.13 7.74,-35.1 4.2,-4.56 10.67,-6.14 15.85,-9.55 6.54,-4.31 13,-14.49 11.77,-22.75 -1.34,-8.7 -13.68,-11.64 -21.19,-13.77 z"
     opacity="0.1"
     id="path16491" />
  <path
     d="m 246.76986,267.05184 c -7.26,-2.06 -15.19,-3 -22.25,-0.37 -11.68,4.41 -18.89,9.49 -28,18.06 -7.18,6.77 -15.08,18.57 -23.53,23.65 -8.45,5.08 -16.71,11.7 -20,21 -4.63,13.1 1.71,27.17 4.58,40.76 a 81.81,81.81 0 0 1 -3.6,45.79 c -5.56,14.54 -15.49,28.76 -13,44.14 2.61,16.45 19.12,27.61 35.53,30.42 11.18,1.92 23.28,0.74 32.78,-5.44 a 20,20 0 0 0 6.6,-6.5 c 4.05,-7 1.39,-15.81 -1.11,-23.51 -5.12,-15.77 -9.16,-31.87 -13.21,-47.95 -2.36,-9.39 -4.7,-19.46 -1.36,-28.55 3.26,-8.87 11.39,-15.08 19.89,-19.22 3.33,-1.62 6.88,-3.08 9.38,-5.8 a 16.13,16.13 0 0 0 3.13,-5.31 c 4.28,-11.41 -0.52,-26.13 7.74,-35.1 4.2,-4.56 10.67,-6.14 15.85,-9.55 6.54,-4.31 13,-14.49 11.77,-22.75 -1.33,-8.69 -13.67,-11.64 -21.19,-13.77 z"
     fill="#eb6475"
     id="path16493" />
  <path
     d="m 30.959858,680.91184 c 0,0 -13.26,-45 2.49,-78.14 a 71.09,71.09 0 0 0 5.75,-44.6 119.57,119.57 0 0 0 -6.31,-20.93"
     fill="none"
     stroke="#535461"
     stroke-miterlimit="10"
     stroke-width="2"
     id="path16495" />
  <path
     d="m 42.669858,516.30184 c 0,5.52 -10,21.51 -10,21.51 0,0 -10,-16 -10,-21.51 a 10,10 0 0 1 20,0 z"
     fill="#6c63ff"
     id="path16497" />
  <path
     d="m 59.179858,546.85184 c -3,4.63 -20.08,12.63 -20.08,12.63 0,0 0.31,-18.86 3.31,-23.49 a 10,10 0 0 1 16.77,10.86 z"
     fill="#6c63ff"
     id="path16499" />
  <path
     d="m 58.459858,599.07184 c -4.93,2.48 -23.71,0.77 -23.71,0.77 0,0 9.79,-16.12 14.71,-18.6 a 10,10 0 0 1 9,17.84 z"
     fill="#6c63ff"
     id="path16501" />
  <path
     d="m 49.019858,638.46184 c -4.44,3.28 -23.24,4.76 -23.24,4.76 0,0 6.92,-17.54 11.36,-20.82 a 10,10 0 0 1 11.88,16.06 z"
     fill="#6c63ff"
     id="path16503" />
  <path
     d="m 18.139858,560.56184 c 4,3.84 22.39,7.83 22.39,7.83 0,0 -4.51,-18.31 -8.47,-22.15 a 10,10 0 1 0 -13.92,14.32 z"
     fill="#6c63ff"
     id="path16505" />
  <path
     d="m 7.6798577,606.75184 c 4.9300003,2.48 23.7100003,0.77 23.7100003,0.77 0,0 -9.79,-16.12 -14.71,-18.6 a 10,10 0 1 0 -9.0000003,17.84 z"
     fill="#6c63ff"
     id="path16507" />
  <path
     d="m 3.6698577,653.05184 c 4.44,3.28 23.2400003,4.76 23.2400003,4.76 0,0 -6.92,-17.54 -11.36,-20.82 a 10,10 0 0 0 -11.8800003,16.06 z"
     fill="#6c63ff"
     id="path16509" />
  <path
     d="m 399.42986,809.30184 a 11.67,11.67 0 0 0 3.83,-5.78 c 0.5,-2.3 -0.48,-5.05 -2.68,-5.89 -2.46,-0.94 -5.09,0.76 -7.08,2.49 -1.99,1.73 -4.28,3.69 -6.89,3.32 a 10.48,10.48 0 0 0 3.24,-9.81 4.1,4.1 0 0 0 -0.9,-2 c -1.37,-1.46 -3.84,-0.83 -5.48,0.32 -5.2,3.66 -6.65,10.72 -6.68,17.08 -0.52,-2.29 -0.08,-4.68 -0.1,-7 -0.02,-2.32 -0.66,-5 -2.64,-6.22 a 8,8 0 0 0 -4,-0.95 c -2.34,-0.09 -4.94,0.15 -6.54,1.86 -2,2.12 -1.47,5.69 0.26,8 1.73,2.31 4.35,3.8 6.77,5.42 a 15,15 0 0 1 4.84,4.61 4.57,4.57 0 0 1 0.36,0.82 h 14.65 a 40.83,40.83 0 0 0 9.04,-6.27 z"
     fill="#6c63ff"
     id="path16511" />
  <path
     d="m 596.14986,428.43184 c 0,0 -41.84,41.84 -18.22,103.92 23.62,62.08 -40.49,165.32 -40.49,165.32 0,0 0.69,-0.1 2,-0.32 85.93,-15.17 128.62,-113.44 80.84,-186.45 -17.8,-27.15 -32.38,-58.99 -24.13,-82.47 z"
     fill="#6c63ff"
     id="path16513" />
  <path
     d="m 596.14986,429.12184 c 0,0 -41.84,41.84 -18.22,103.92 23.62,62.08 -40.49,165.32 -40.49,165.32 0,0 0.69,-0.1 2,-0.32 85.89,-15.17 128.58,-113.48 80.8,-186.48 -17.76,-27.11 -32.34,-59 -24.09,-82.44 z"
     opacity="0.1"
     id="path16515" />
  <path
     d="m 596.14986,428.43184 c 0,0 -23.62,51.28 0,93.12 23.62,41.84 4,159.25 -58.71,176.12"
     fill="none"
     stroke="#535461"
     stroke-miterlimit="10"
     id="path16517" />
  <path
     d="m 670.65986,597.64184 c 0,0 -47.74,-7.6 -52.09,35.18 -4.35,42.78 -91.8,48.74 -91.8,48.74 l 1.64,1.09 c 72.2,47.4 141.23,30.19 130.82,-32.75 -3.86,-23.41 -3.55,-46.91 11.43,-52.26 z"
     fill="#6c63ff"
     id="path16519" />
  <path
     d="m 670.65986,597.64184 c 0,0 -37.06,8.13 -34,41.83 3.06,33.7 -55.04,74.09 -109.89,42.09"
     fill="none"
     stroke="#535461"
     stroke-miterlimit="10"
     id="path16521" />
  <path
     d="m 628.65986,683.10184 c 0,0 -37.6,-7.54 -47.63,-17.54 -10.03,-10 -55.15,-27.57 -60.16,-15 -5.01,12.57 -67.68,55.1 -25.1,62.62 42.58,7.52 100.27,10 112.8,5 12.53,-5 20.09,-35.08 20.09,-35.08 z"
     fill="#a8a8a8"
     id="path16523" />
  <path
     d="m 495.76986,708.56184 c 42.62,7.52 100.27,10 112.8,5 9.55,-3.82 16.18,-22.16 18.8,-30.7 l 1.25,0.26 c 0,0 -7.52,30.08 -20.05,35.09 -12.53,5.01 -70.19,2.51 -112.8,-5 -12.3,-2.17 -15.82,-7.27 -14.49,-13.72 1.08,4.18 5.37,7.42 14.49,9.07 z"
     opacity="0.2"
     id="path16525" />
  <path
     d="m 1.1298577,678.36184 c 0,0 22.4100003,-0.69 29.1600003,-5.5 6.75,-4.81 34.47,-10.55 36.14,-2.84 1.67,7.71 33.670002,38.36 8.34,38.54 -25.33,0.18 -58.78,-3.94 -65.5200003,-8 -6.74,-4.06 -8.12,-22.2 -8.12,-22.2 z"
     fill="#a8a8a8"
     id="path16527" />
  <path
     d="m 75.249858,705.90184 c -25.3,0.2 -58.78,-3.94 -65.5200003,-8 -5.13,-3.13 -7.18,-14.34 -7.86,-19.52 h -0.75 c 0,0 1.42,18.07 8.16,22.18 6.7400003,4.11 40.2200003,8.25 65.5200003,8 7.3,-0.06 9.82,-2.66 9.69,-6.5 -1.02,2.34 -3.8,3.79 -9.24,3.84 z"
     opacity="0.2"
     id="path16529" />
  <metadata
     id="metadata16778">
    <rdf:RDF>
      <cc:Work
         rdf:about="">
        <dc:title>gdpr</dc:title>
      </cc:Work>
    </rdf:RDF>
  </metadata>
</svg>
