<?xml version="1.0" encoding="UTF-8" standalone="no"?>
<svg
   data-name="Layer 1"
   width="624.44977"
   height="428.75998"
   viewBox="0 0 624.44977 428.75996"
   version="1.1"
   id="svg26782"
   sodipodi:docname="undraw_team_page_re_cffb.svg"
   inkscape:version="1.1.2 (0a00cf5339, 2022-02-04)"
   xmlns:inkscape="http://www.inkscape.org/namespaces/inkscape"
   xmlns:sodipodi="http://sodipodi.sourceforge.net/DTD/sodipodi-0.dtd"
   xmlns="http://www.w3.org/2000/svg"
   xmlns:svg="http://www.w3.org/2000/svg">
  <defs
     id="defs26786" />
  <sodipodi:namedview
     id="namedview26784"
     pagecolor="#ffffff"
     bordercolor="#666666"
     borderopacity="1.0"
     inkscape:pageshadow="2"
     inkscape:pageopacity="0.0"
     inkscape:pagecheckerboard="0"
     showgrid="true"
     inkscape:zoom="1.4829164"
     inkscape:cx="232.98683"
     inkscape:cy="158.80868"
     inkscape:window-width="1920"
     inkscape:window-height="1056"
     inkscape:window-x="1920"
     inkscape:window-y="1080"
     inkscape:window-maximized="1"
     inkscape:current-layer="layer3">
    <inkscape:grid
       type="xygrid"
       id="grid27397"
       originx="1.95996"
       originy="0.040000012" />
  </sodipodi:namedview>
  <g
     inkscape:groupmode="layer"
     id="layer3"
     inkscape:label="Layer 1"
     transform="translate(1.95996,0.04000001)">
    <path
       style="fill:#ffffff;stroke-width:2.50001"
       d="m 3,425.99998 c 0.013656,-0.2426 -3.46337506,-2.30626 -3.47803208,-4.3263 -0.1308863,-18.03882 0.12938067,-103.76307 0.12938067,-207.77003 0,-107.2384 -0.92664039,-164.232259 0.30041355,-190.953239 C 0.27604938,15.888558 -0.84279986,9.6777429 -0.10775971,6.5390131 0.90535026,2.2128841 3.8262599,2.3721176 4.3052927,1.9676941 6.1978381,0.36992191 87.991513,0.69259437 311.82614,0.7251915 L 616,2 l 3,2 2,4 v 205 202 8 l -4.14186,3.31653 -306.42328,1.1025 C 141.97491,428.02515 2.9438524,426.99746 3,425.99998 Z"
       id="path27991"
       sodipodi:nodetypes="ssssscscccccccss" />
  </g>
  <g
     inkscape:groupmode="layer"
     id="layer4"
     inkscape:label="Layer 2"
     transform="translate(1.95996,0.04000001)">
    <path
       d="m 613.75976,-0.04 h -607 a 8.72767,8.72767 0 0 0 -8.71972,8.72 v 411.31998 a 8.72766,8.72766 0 0 0 8.71972,8.72 h 607 a 8.71244,8.71244 0 0 0 6.63037,-3.06 2.0459,2.0459 0 0 0 0.19,-0.24 8.1667,8.1667 0 0 0 1.25,-2.11005 8.50722,8.50722 0 0 0 0.65966,-3.31 V 8.68004 A 8.72954,8.72954 0 0 0 613.75976,-0.04 Z M 620,420 a 6.17538,6.17538 0 0 1 -1.03028,3.42 6.44588,6.44588 0 0 1 -2.35986,2.12 6.1843,6.1843 0 0 1 -2.8501,0.69 h -607 A 6.23758,6.23758 0 0 1 0.52976,420 V 8.68004 a 6.23758,6.23758 0 0 1 6.23,-6.23005 h 607 A 6.23945,6.23945 0 0 1 620,8.68004 Z"
       fill="#3f3d56"
       id="path26718" />
    <rect
       x="-0.71730709"
       y="34.90921"
       width="621.95679"
       height="2.49281"
       fill="#3f3d56"
       id="rect26720" />
    <circle
       cx="20.471588"
       cy="18.656097"
       r="7.4784398"
       fill="#3f3d56"
       id="circle26722" />
    <circle
       cx="41.972099"
       cy="18.656097"
       r="7.4784398"
       fill="#3f3d56"
       id="circle26724" />
    <circle
       cx="63.47261"
       cy="18.656097"
       r="7.4784398"
       fill="#3f3d56"
       id="circle26726" />
    <path
       d="m 275.01714,246.82984 c -7.47934,-4.86853 -11.19944,-16.18352 -9.36686,-26.5314 1.83258,-10.34788 8.73431,-19.26076 17.00769,-23.10449 a 26.64943,26.64943 0 0 1 25.22766,1.79331 c 7.587,4.63929 18.31727,7.18041 21.92024,16.46244 2.76877,7.133 -0.74306,21.61748 -4.46947,28.54566 -3.22083,5.98822 -9.34128,8.72742 -15.09133,9.91751 a 45.34011,45.34011 0 0 1 -36.669,-8.46074 z"
       fill="#2f2e41"
       id="path26728" />
    <polygon
       points="265.156,500.904 247.526,500.904 248.716,498.904 251.796,493.714 258.976,481.594 267.106,484.844 273.076,487.234 267.096,497.544 266.306,498.904 "
       fill="#ffb8b8"
       id="polygon26730"
       transform="translate(-1.95996,-185.44371)" />
    <path
       d="m 244.24609,315.46 -3.22,-2 -0.4,-0.25 20.21,-36.83 a 13.73091,13.73091 0 0 1 8.25,-6.62 13.57465,13.57465 0 0 1 6.78,-0.25 13.3537,13.3537 0 0 1 3.74,1.4 13.08889,13.08889 0 0 1 1.39,0.88 13.34855,13.34855 0 0 1 4.1,4.62 13.817,13.817 0 0 1 -0.42,13.95 l -7.79,12.45 -6.66,10.65 -1.25,2 z"
       fill="#2f2e41"
       id="path26732" />
    <circle
       cx="296.17017"
       cy="235.34047"
       r="24.561029"
       fill="#ffb8b8"
       id="circle26734" />
    <path
       d="m 320.82625,315.46 h -55.21 l 0.25,-0.71 q -0.21021,-0.645 -0.39014,-1.29 c -0.12988,-0.45 -0.24023,-0.91 -0.33984,-1.36 a 30.19353,30.19353 0 0 1 0.01,-12.7 c 3.0503,-14.98 15.22022,-27.15 15.22022,-27.15 0.21,-0.16 0.41992,-0.31 0.62988,-0.46 a 27.78455,27.78455 0 0 1 5.8501,-3.28 c 9.04,-3.75 18.52,-2.24 24.88965,-0.3 a 49.66945,49.66945 0 0 1 6.49023,2.47 c 0.73975,0.35 1.14014,0.57 1.14014,0.57 l 0.62988,19.21 0.75977,23 z"
       fill="#6c63ff"
       id="path26736" />
    <path
       d="M 346.36629,313.46 342.14607,292 337.88631,270.36005 a 4.51913,4.51913 0 0 0 -3.65039,-3.57 l -8.91993,-1.54 -8.2998,-1.43 a 4.45928,4.45928 0 0 0 -4.31006,1.65 4.40983,4.40983 0 0 0 -0.97021,2.74 4.52073,4.52073 0 0 0 0.37011,1.79 c 4.33008,10.1 4.41016,26.09 3.31006,43.46 -0.0498,0.66 -0.0898,1.33 -0.14013,2 h 31.49023 z"
       fill="#2f2e41"
       id="path26738" />
    <path
       d="m 286.84627,268.50999 a 4.52686,4.52686 0 0 0 -7.1499,-2.48 l -3.83008,3.48 -15.68018,14.28 a 4.34546,4.34546 0 0 0 -1.12012,1.59 c -1.77,4.23 -5.21972,12.58 -9.23,22.89 q -0.97485,2.52 -2.00976,5.19 c -0.24024,0.66 -0.5,1.33 -0.76026,2 h 25.84034 c 0.21,-0.67 0.41992,-1.34 0.62988,-2 1.1499,-3.63 2.27,-7.19 3.3501,-10.65 3.15966,-10.05 6.00976,-19.18 8.21,-26.4 q 0.91479,-3 1.66992,-5.54 a 4.52833,4.52833 0 0 0 0.0801,-2.36 z"
       fill="#2f2e41"
       id="path26740" />
    <polygon
       points="355.566,500.344 354.956,498.904 345.546,476.574 344.106,477.444 332.546,484.434 338.476,498.904 339.296,500.904 348.726,500.904 354.126,500.904 355.796,500.904 "
       fill="#ffb8b8"
       id="polygon26742"
       transform="translate(-1.95996,-185.44371)" />
    <path
       d="m 342.62605,273.42003 a 13.82107,13.82107 0 0 0 -17.31006,-8.17 12.40955,12.40955 0 0 0 -1.27,0.5 13.64666,13.64666 0 0 0 -5.81982,4.93 13.20487,13.20487 0 0 0 -1.43018,2.77 13.74214,13.74214 0 0 0 0.31006,10.57 l 2.89014,6.44 10.33984,23 0.89991,2 h 20.93015 l 1.43994,-0.56 3.74024,-1.44 0.52,-0.2 z"
       fill="#2f2e41"
       id="path26744" />
    <path
       d="m 315.46034,207.13175 a 4.06329,4.06329 0 0 0 4.62209,-1.754 5.85069,5.85069 0 0 0 0.33826,-5.14335 10.73556,10.73556 0 0 0 -3.19533,-4.21454 12.40607,12.40607 0 0 0 -5.61743,-2.90837 7.46127,7.46127 0 0 0 -6.05269,1.33064 5.37677,5.37677 0 0 0 -1.82593,5.72244 c 0.63589,1.84437 2.35849,3.08 4.07875,4.00021 a 27.09441,27.09441 0 0 0 11.03812,3.138 z"
       fill="#2f2e41"
       id="path26746" />
    <path
       d="m 320.2383,234.60683 c -3.94869,0.5444 -3.44168,-1.46546 -5.02317,-5.12434 -1.58149,-3.65888 -3.69838,-8.00234 -7.66715,-8.37294 -3.25244,-0.30372 -5.93218,2.2964 -8.56707,4.22719 -4.69631,3.44136 -11.02545,5.12576 -16.46936,3.06124 -5.44391,-2.06452 -9.22682,-8.55255 -7.16126,-13.99606 a 11.94253,11.94253 0 0 1 6.9065,-6.52921 24.02845,24.02845 0 0 1 9.62258,-1.33669 49.6471,49.6471 0 0 1 20.86393,5.34081 c 4.4722,2.27237 8.82588,5.52329 10.52244,10.24409 1.69656,4.7208 2.813,11.35473 -2.03813,12.63178 z"
       fill="#2f2e41"
       id="path26748" />
    <path
       d="m 313.44196,194.14729 c -1.95192,-3.39729 -0.34073,-8.05884 2.8528,-10.32887 3.19353,-2.27003 7.47743,-2.49266 11.28829,-1.58221 a 22.16579,22.16579 0 0 1 15.90025,15.41126 c 1.61709,5.94124 0.65566,12.3225 2.02517,18.32565 a 24.04864,24.04864 0 0 0 30.22242,17.72542 c 4.10194,-1.20461 8.27057,-4.13321 8.674,-8.3893 a 23.51836,23.51836 0 0 1 -13.92765,23.54891 c -5.2851,2.20464 -11.18046,2.34841 -16.90507,2.20148 -3.73068,-0.0957 -7.54631,-0.32035 -10.98783,-1.76366 a 19.66657,19.66657 0 0 1 -10.33345,-11.20382 31.12894,31.12894 0 0 1 -1.37547,-15.4352 c 0.56314,-4.0283 1.68351,-7.97662 1.997,-12.032 0.31349,-4.05538 -0.28105,-8.38552 -2.78117,-11.59391 -2.50012,-3.20839 -7.27586,-4.84718 -10.83042,-2.87 -1.42853,0.79462 -2.581,2.09271 -4.13318,2.60549 -1.55218,0.51278 -3.752,-0.38836 -3.61075,-2.0169 z"
       fill="#2f2e41"
       id="path26750" />
    <path
       d="m 481.04597,315.46 0.19,-2 5.64013,-58.68 a 35.917,35.917 0 0 1 5.93018,-3.77 c 11.60986,-5.85 22.81006,-3.05 28.86963,-0.63 a 31.59143,31.59143 0 0 1 4.64013,2.27 l 3.3003,60.81 0.10986,2 z"
       fill="#6c63ff"
       id="path26752" />
    <circle
       cx="507.45889"
       cy="214.6017"
       r="24.561029"
       fill="#ffb8b8"
       id="circle26754" />
    <path
       d="M 527.38711,229.57766 A 13.36948,13.36948 0 0 0 517.2418,207.0136 c -3.39627,0.11351 -6.59648,1.50343 -9.83795,2.52344 a 32.53459,32.53459 0 0 1 -15.28491,1.37639 20.40973,20.40973 0 0 1 -13.01642,-7.68569 c -3.03878,-4.17652 -3.98636,-9.9694 -1.83961,-14.66717 2.47835,-5.42343 8.26757,-8.41182 13.71368,-10.83993 a 25.06262,25.06262 0 0 1 6.9624,-2.28755 8.92874,8.92874 0 0 1 6.92635,1.746 c 1.53041,1.31628 2.42737,3.29481 4.09275,4.43554 1.87468,1.28409 4.3099,1.25039 6.57089,1.47672 a 25.20452,25.20452 0 0 1 12.20761,45.54 z"
       fill="#2f2e41"
       id="path26756" />
    <path
       d="m 496.46589,261.17003 -3.65967,-10.16 -0.22852,-0.6333 a 2.10407,2.10407 0 0 0 -3.14648,-1.03668 l -4.15527,2.77 c 0,0 -26.64991,0 -28.79,15.99 -0.0298,0.25 -0.0698,0.53 -0.0996,0.83 a 0.1546,0.1546 0 0 1 -0.0103,0.04 c -0.27,1.05 -5.2998,20.49 -9.62011,44.49 -0.11963,0.66 -0.23975,1.33 -0.35987,2 h 57.91016 v -1.8e-4 c 1.88425,-24.10894 0.83005,-46.52472 -7.84037,-54.28984 z"
       fill="#2f2e41"
       id="path26758" />
    <path
       d="m 565.54597,313.46 c -3.15966,-24.62 -7.67968,-44.53 -7.67968,-44.53 -0.04,-0.3 -0.0801,-0.58 -0.11035,-0.83 -2.12989,-15.99 -28.77979,-15.99 -28.77979,-15.99 l -4.15283,-2.76862 a 2.10445,2.10445 0 0 0 -3.14746,1.03858 l -3.88965,10.79 c -8.67041,7.76507 -9.72461,30.1806 -7.84033,54.2893 l 4.9e-4,6.7e-4 h 55.8496 c -0.0801,-0.66991 -0.16992,-1.33995 -0.25,-1.99993 z"
       fill="#2f2e41"
       id="path26760" />
    <path
       d="m 96.46589,257.40001 -5.93994,56.06 -0.21,2 H 74.24617 c 0.18994,-0.65 0.37988,-1.32 0.58008,-2 4.56006,-15.64 10.77,-38.47 10.09961,-44.52 -1.04981,-9.44 6.30029,-12.59 6.30029,-12.59 l 0.46,0.09 z"
       fill="#6c63ff"
       id="path26762" />
    <circle
       cx="122.38267"
       cy="215.53539"
       r="24.561029"
       fill="#a0616a"
       id="circle26764" />
    <path
       d="m 154.17589,303.55998 a 40.26632,40.26632 0 0 0 -3.02979,7.16 c -0.29,0.88 -0.56982,1.8 -0.83008,2.74 -0.18994,0.65 -0.35986,1.32 -0.52978,2 H 85.00589 c 0.0903,-0.66 0.16992,-1.33 0.26025,-2 3.31006,-26.15 5.98975,-52.69 6.41992,-57.02 0.04,-0.41 0.0601,-0.62 0.0601,-0.62 38.81982,-20.46 67.1499,6.3 67.1499,6.3 0,0 0.04,0.19 0.1001,0.56 0.62017,3.74005 3.77984,25.58001 -4.82023,40.88 z"
       fill="#6c63ff"
       id="path26766" />
    <path
       d="m 151.14607,310.72001 -4.31982,-9.26 1.0498,-36.72 11.12012,-2.06005 0.39014,-0.07 a 29.44476,29.44476 0 0 1 12.61963,14.72 c 2.16015,5.4 6.27,21.64 9.74023,36.13 0.16016,0.67 0.31982,1.34 0.48,2 h -28.87014 l -0.93017,-2 z"
       fill="#6c63ff"
       id="path26768" />
    <path
       d="m 190.65633,150.46 h -142.02 a 11.504,11.504 0 0 0 -11.49024,11.49 v 142.02 a 11.504,11.504 0 0 0 11.49024,11.49 h 142.02 a 11.49726,11.49726 0 0 0 11.48974,-11.49 V 161.95 a 11.49727,11.49727 0 0 0 -11.48974,-11.49 z m 9.48974,153.51 a 9.49787,9.49787 0 0 1 -9.48974,9.49 h -142.02 a 9.50458,9.50458 0 0 1 -9.49024,-9.49 V 161.95 a 9.50458,9.50458 0 0 1 9.49024,-9.49 h 142.02 a 9.49787,9.49787 0 0 1 9.48974,9.49 z m -109.62011,9.49 -0.21,2 h 59.47022 c 0.16992,-0.68 0.33984,-1.35 0.52978,-2 z"
       fill="#3f3d56"
       id="path26770" />
    <path
       d="m 381.26619,150.46 h -142.02 a 11.504,11.504 0 0 0 -11.49023,11.49 v 142.02 a 11.504,11.504 0 0 0 11.49023,11.49 h 142.02 a 11.49727,11.49727 0 0 0 11.48975,-11.49 V 161.95 a 11.49728,11.49728 0 0 0 -11.48975,-11.49 z m 9.48975,153.51 a 9.49788,9.49788 0 0 1 -9.48975,9.49 h -142.02 a 9.50457,9.50457 0 0 1 -9.49023,-9.49 V 161.95 a 9.50457,9.50457 0 0 1 9.49023,-9.49 h 142.02 a 9.49788,9.49788 0 0 1 9.48975,9.49 z m -125.27979,9.49 q 0.18018,0.645 0.39014,1.29 l -0.25,0.71 h 49.65967 c 0.0503,-0.67 0.0903,-1.34 0.14013,-2 z"
       fill="#3f3d56"
       id="path26772" />
    <path
       d="m 571.88631,150.46 h -142.02 a 11.49738,11.49738 0 0 0 -11.49024,11.49 v 142.02 a 11.49738,11.49738 0 0 0 11.49024,11.49 h 142.02 a 11.50385,11.50385 0 0 0 11.48974,-11.49 V 161.95 a 11.50385,11.50385 0 0 0 -11.48974,-11.49 z m 9.48974,153.51 a 9.50415,9.50415 0 0 1 -9.48974,9.49 h -142.02 a 9.498,9.498 0 0 1 -9.49024,-9.49 V 161.95 a 9.498,9.498 0 0 1 9.49024,-9.49 h 142.02 a 9.50415,9.50415 0 0 1 9.48974,9.49 z m -76.91992,9.49 c -0.0498,0.66 -0.1001,1.33 -0.1499,2 h 43.08984 c 0.0801,-0.66 0.16992,-1.33 0.25,-2 z"
       fill="#3f3d56"
       id="path26774" />
    <path
       d="m 475.26106,373.46 h -330 a 8,8 0 1 1 0,-16 h 330 a 8,8 0 1 1 0,16 z"
       fill="#cccccc"
       id="path26776" />
    <path
       d="m 382.76106,108.46 h -145 a 8,8 0 0 1 0,-16 h 145 a 8,8 0 0 1 0,16 z"
       fill="#6c63ff"
       id="path26778" />
    <path
       d="m 134.13067,236.93397 a 4.85261,4.85261 0 0 0 6.3459,0.40659 c 5.78855,-4.29092 10.87037,-9.632 13.87778,-16.14675 3.44607,-7.465 3.83051,-16.62536 -0.32437,-23.72027 -3.51234,-5.99771 -9.71445,-9.86806 -15.89583,-13.046 a 28.27085,28.27085 0 0 0 -7.67384,-2.95767 10.93658,10.93658 0 0 0 -7.95156,1.283 6.8677,6.8677 0 0 0 -3.10059,7.09085 25.847,25.847 0 0 0 -11.03189,-7.40557 14.26707,14.26707 0 0 0 -8.4253,-0.61079 c -3.92257,1.11261 -6.78627,4.59777 -8.35256,8.36223 a 16.72442,16.72442 0 0 0 -1.26244,9.1248 11.14652,11.14652 0 0 0 4.87061,7.63468 c 3.24313,2.00656 7.38056,1.86189 11.10508,1.04211 3.72452,-0.81978 7.32987,-2.24558 11.12646,-2.60616 3.79659,-0.36058 8.02437,0.5861 10.33493,3.62014 1.62715,2.13664 2.045,4.92841 2.41021,7.58914 l 1.89978,13.83909 a 16.88064,16.88064 0 0 0 1.5099,5.78251 3.33319,3.33319 0 0 0 0.53773,0.71807 z"
       fill="#2f2e41"
       id="path26780" />
  </g>
</svg>
