<?xml version="1.0" encoding="UTF-8" standalone="no"?>
<svg
   data-name="Layer 1"
   width="582.38898"
   height="322.52319"
   viewBox="0 0 582.38896 322.52321"
   version="1.1"
   id="svg34"
   sodipodi:docname="undraw_cloud_files_wmo8.svg"
   inkscape:version="1.1.2 (0a00cf5339, 2022-02-04)"
   xmlns:inkscape="http://www.inkscape.org/namespaces/inkscape"
   xmlns:sodipodi="http://sodipodi.sourceforge.net/DTD/sodipodi-0.dtd"
   xmlns="http://www.w3.org/2000/svg"
   xmlns:svg="http://www.w3.org/2000/svg">
  <defs
     id="defs38" />
  <sodipodi:namedview
     id="namedview36"
     pagecolor="#ffffff"
     bordercolor="#666666"
     borderopacity="1.0"
     inkscape:pageshadow="2"
     inkscape:pageopacity="0.0"
     inkscape:pagecheckerboard="0"
     showgrid="false"
     inkscape:zoom="0.91712447"
     inkscape:cx="291.67251"
     inkscape:cy="169.55169"
     inkscape:window-width="1920"
     inkscape:window-height="1056"
     inkscape:window-x="1920"
     inkscape:window-y="1080"
     inkscape:window-maximized="1"
     inkscape:current-layer="svg34" />
  <title
     id="title2">cloud_files</title>
  <path
     d="M 542.79546,4.22021 H 338.03882 V 3.14805 A 3.14805,3.14805 0 0 0 334.89077,0 h -86.54852 a 3.14805,3.14805 0 0 0 -3.148,3.14805 V 4.22021 H 39.59352 A 13.85024,13.85024 0 0 0 25.74328,18.07043 V 298.4453 a 13.85024,13.85024 0 0 0 13.85024,13.85024 H 542.7954 a 13.8503,13.8503 0 0 0 13.8503,-13.85029 V 18.07043 A 13.85024,13.85024 0 0 0 542.79546,4.22021 Z"
     fill="#3f3d56"
     id="path14" />
  <path
     d="m 50.60824,33.69729 a 1.29773,1.29773 0 0 0 -1.29589,1.29639 v 265.94189 a 1.29732,1.29732 0 0 0 1.29589,1.2959 h 481.17237 a 1.297,1.297 0 0 0 1.2959,-1.2959 V 34.99368 a 1.29742,1.29742 0 0 0 -1.2959,-1.29639 z"
     fill="#6c63ff"
     id="path16" />
  <circle
     cx="290.77246"
     cy="16.036804"
     r="5.06425"
     fill="#6c63ff"
     id="circle18" />
  <path
     d="m 565.86731,293.39919 h -48.18822 v -4.97648 c 0,-0.27332 -0.30819,-0.49487 -0.6884,-0.49487 h -16.52167 c -0.38021,0 -0.68841,0.22155 -0.68841,0.49487 v 4.97648 h -10.326 v -4.97648 c 0,-0.27332 -0.3082,-0.49487 -0.68841,-0.49487 h -16.52171 c -0.38021,0 -0.6884,0.22155 -0.6884,0.49487 v 4.97648 h -10.32605 v -4.97648 c 0,-0.27332 -0.30819,-0.49487 -0.6884,-0.49487 h -16.52167 c -0.38021,0 -0.68841,0.22155 -0.68841,0.49487 v 4.97648 h -10.326 v -4.97648 c 0,-0.27332 -0.3082,-0.49487 -0.68841,-0.49487 h -16.52171 c -0.38021,0 -0.6884,0.22155 -0.6884,0.49487 v 4.97648 h -10.32605 v -4.97648 c 0,-0.27332 -0.30819,-0.49487 -0.6884,-0.49487 h -16.52167 c -0.38021,0 -0.68841,0.22155 -0.68841,0.49487 v 4.97648 h -10.326 v -4.97648 c 0,-0.27332 -0.3082,-0.49487 -0.68841,-0.49487 h -16.52171 c -0.38021,0 -0.6884,0.22155 -0.6884,0.49487 v 4.97648 h -10.32605 v -4.97648 c 0,-0.27332 -0.30819,-0.49487 -0.6884,-0.49487 H 218.22377 c -0.38021,0 -0.68841,0.22155 -0.68841,0.49487 v 4.97648 h -10.326 v -4.97648 c 0,-0.27332 -0.3082,-0.49487 -0.68841,-0.49487 h -16.52171 c -0.38021,0 -0.6884,0.22155 -0.6884,0.49487 v 4.97648 h -10.32605 v -4.97648 c 0,-0.27332 -0.30819,-0.49487 -0.6884,-0.49487 h -16.52167 c -0.38021,0 -0.68841,0.22155 -0.68841,0.49487 v 4.97648 h -10.326 v -4.97648 c 0,-0.27332 -0.3082,-0.49487 -0.68841,-0.49487 h -16.52171 c -0.38021,0 -0.6884,0.22155 -0.6884,0.49487 v 4.97648 h -10.32605 v -4.97648 c 0,-0.27332 -0.30819,-0.49487 -0.6884,-0.49487 h -16.52167 c -0.38021,0 -0.68841,0.22155 -0.68841,0.49487 v 4.97648 h -10.326 v -4.97648 c 0,-0.27332 -0.3082,-0.49487 -0.68841,-0.49487 H 77.10114 c -0.38021,0 -0.6884,0.22155 -0.6884,0.49487 v 4.97648 H 66.08667 v -4.97648 c 0,-0.27332 -0.30819,-0.49487 -0.6884,-0.49487 H 48.87662 c -0.38021,0 -0.68841,0.22155 -0.68841,0.49487 v 4.97648 H 16.52167 C 7.39701,293.39919 0,298.71662 0,305.27599 v 5.37044 c 0,6.55934 7.397,11.87677 16.52167,11.87677 h 549.34564 c 9.12466,0 16.52167,-5.31743 16.52167,-11.87677 v -5.37041 c 0,-6.5594 -7.39701,-11.87683 -16.52167,-11.87683 z"
     fill="#3f3d56"
     id="path20" />
  <path
     d="M 235.17275,145.58337 H 92.949 a 1.11987,1.11987 0 1 1 0,-2.23974 h 142.22375 a 1.11987,1.11987 0 1 1 0,2.23974 z"
     fill="#f2f2f2"
     id="path22" />
  <path
     d="M 235.17275,170.22056 H 92.949 a 1.11987,1.11987 0 1 1 0,-2.23974 h 142.22375 a 1.11987,1.11987 0 1 1 0,2.23974 z"
     fill="#f2f2f2"
     id="path24" />
  <path
     d="M 235.17275,194.85775 H 92.949 a 1.11988,1.11988 0 1 1 0,-2.23975 h 142.22375 a 1.11988,1.11988 0 1 1 0,2.23975 z"
     fill="#f2f2f2"
     id="path26" />
  <rect
     x="297.32565"
     y="81.19072"
     width="182.53915"
     height="175.81992"
     rx="3.3596201"
     fill="#ffffff"
     id="rect28" />
  <path
     d="m 333.87767,174.24014 a 45.00606,45.00606 0 0 1 88.30268,-9.48886 c 0.54524,-0.0196 1.09,-0.0415 1.64,-0.0415 a 17.66745,17.66745 0 0 1 5.51476,0.93823 c 22.387,7.35112 16.49195,40.7751 -7.07106,40.7751 h -57.90898 a 30.44228,30.44228 0 0 1 -30.5093,-31.51923 q 0.0135,-0.33138 0.0319,-0.66377 z"
     fill="#6c63ff"
     id="path30" />
  <polygon
     points="452.478,336.649 452.478,355.07 444.559,355.07 450.998,366.224 457.438,377.377 463.877,366.224 470.316,355.07 462.397,355.07 462.397,336.649 "
     fill="#ffffff"
     id="polygon32"
     transform="translate(-75.73657,-181.53096)" />
</svg>
