<?xml version="1.0" encoding="UTF-8" standalone="no"?>
<svg
   data-name="Layer 1"
   width="821.67969"
   height="579.00958"
   viewBox="0 0 821.67969 579.00958"
   version="1.1"
   id="svg460"
   sodipodi:docname="undraw_scrum_board_re_wk7v.svg"
   inkscape:version="1.1.2 (0a00cf5339, 2022-02-04)"
   xmlns:inkscape="http://www.inkscape.org/namespaces/inkscape"
   xmlns:sodipodi="http://sodipodi.sourceforge.net/DTD/sodipodi-0.dtd"
   xmlns="http://www.w3.org/2000/svg"
   xmlns:svg="http://www.w3.org/2000/svg">
  <defs
     id="defs464" />
  <sodipodi:namedview
     id="namedview462"
     pagecolor="#ffffff"
     bordercolor="#666666"
     borderopacity="1.0"
     inkscape:pageshadow="2"
     inkscape:pageopacity="0.0"
     inkscape:pagecheckerboard="0"
     showgrid="true"
     inkscape:snap-page="false"
     inkscape:zoom="0.73487558"
     inkscape:cx="11.566584"
     inkscape:cy="483.75536"
     inkscape:window-width="1920"
     inkscape:window-height="1056"
     inkscape:window-x="1920"
     inkscape:window-y="1080"
     inkscape:window-maximized="1"
     inkscape:current-layer="layer2">
    <inkscape:grid
       type="xygrid"
       id="grid546"
       originx="-2.3202794"
       originy="-2.9999926" />
  </sodipodi:namedview>
  <g
     inkscape:groupmode="layer"
     id="layer1"
     inkscape:label="Layer 1"
     transform="translate(-2.3202794,-2.9999926)">
    <path
       style="fill:#ffffff;fill-opacity:1;stroke:none;stroke-width:2.5;stroke-linecap:butt;stroke-linejoin:miter;stroke-miterlimit:4;stroke-dasharray:none;stroke-opacity:1"
       d="m 125.65726,452.00516 c -5.03495,-1.33259 -10.56245,-7.02175 -12.03247,-12.38434 -0.90452,-3.29971 -1.10923,-45.56796 -0.89758,-185.33464 l 0.27418,-181.060064 2.89389,-4.097519 c 1.59165,-2.253625 4.63025,-5.00451 6.75243,-6.113054 l 3.85855,-2.015545 h 341.63835 341.63834 l 4.18279,2.907335 c 2.4455,1.699796 5.08423,4.689954 6.3532,7.199298 l 2.17042,4.291973 -0.0213,181.421016 c -0.0204,175.10469 -0.0839,181.5593 -1.82428,185.39228 -1.97229,4.34391 -6.45215,8.17404 -11.56218,9.88526 -4.41286,1.47774 -677.83599,1.38709 -683.42446,-0.092 z"
       id="path3788" />
  </g>
  <g
     inkscape:groupmode="layer"
     id="layer2"
     inkscape:label="Layer 2"
     transform="translate(-2.3202794,-2.9999926)">
    <path
       d="m 184.39986,61 h -52.3999 a 19.01722,19.01722 0 0 0 -19,19 v 56.81 c -0.66992,-0.04 -1.33985,-0.1 -2,-0.18 A 66.99888,66.99888 0 1 1 184.10005,59 c 0.10991,0.65997 0.21001,1.33002 0.29981,2 z"
       fill="#f2f2f2"
       id="path366" />
    <path
       d="M 803,59 H 132 a 21.023,21.023 0 0 0 -21,21 v 354 a 21.023,21.023 0 0 0 21,21 h 671 a 21.023,21.023 0 0 0 20.99996,-21 V 80 A 21.023,21.023 0 0 0 803,59 Z m 18.99996,375 A 19.01722,19.01722 0 0 1 803,453 H 132 A 19.01722,19.01722 0 0 1 113,434 V 80 a 19.01722,19.01722 0 0 1 19,-19 h 671 a 19.01722,19.01722 0 0 1 18.99996,19 z"
       fill="#3f3d56"
       id="path368" />
    <path
       d="M 770,116.36963 H 165 a 1,1 0 0 1 0,-2 h 605 a 1,1 0 0 1 0,2 z"
       fill="#3f3d56"
       id="path370" />
    <path
       d="m 336,412 a 1,1 0 0 1 -1,-1 V 82 a 1,1 0 1 1 2,0 v 329 a 1.00005,1.00005 0 0 1 -1,1 z"
       fill="#3f3d56"
       id="path372" />
    <path
       d="m 487,412 a 1,1 0 0 1 -1,-1 V 82 a 1,1 0 1 1 2,0 v 329 a 1.00005,1.00005 0 0 1 -1,1 z"
       fill="#3f3d56"
       id="path374" />
    <path
       d="m 638,412 a 1,1 0 0 1 -1,-1 V 82 a 1,1 0 1 1 2,0 v 329 a 1.00005,1.00005 0 0 1 -1,1 z"
       fill="#3f3d56"
       id="path376" />
    <path
       d="m 238.91565,219.5874 h -36.54 a 4.505,4.505 0 0 1 -4.5,-4.5 v -43.11961 a 4.505,4.505 0 0 1 4.5,-4.5 h 36.54 a 4.505,4.505 0 0 1 4.5,4.5 v 43.11963 a 4.505,4.505 0 0 1 -4.5,4.49998 z"
       fill="#6c63ff"
       id="path378" />
    <path
       d="m 290.91565,342.5874 h -36.54 a 4.505,4.505 0 0 1 -4.5,-4.5 v -43.11961 a 4.505,4.505 0 0 1 4.5,-4.5 h 36.54 a 4.505,4.505 0 0 1 4.5,4.5 v 43.11963 a 4.505,4.505 0 0 1 -4.5,4.49998 z"
       fill="#6c63ff"
       id="path380" />
    <path
       d="m 408.91577,245.5874 h -36.54 a 4.50508,4.50508 0 0 1 -4.5,-4.5 v -43.11961 a 4.50508,4.50508 0 0 1 4.5,-4.5 h 36.54 a 4.50508,4.50508 0 0 1 4.5,4.5 v 43.11963 a 4.50508,4.50508 0 0 1 -4.5,4.49998 z"
       fill="#6c63ff"
       id="path382" />
    <path
       d="m 561.91577,198.5874 h -36.54 a 4.50508,4.50508 0 0 1 -4.5,-4.5 v -43.11961 a 4.50508,4.50508 0 0 1 4.5,-4.5 h 36.54 a 4.50508,4.50508 0 0 1 4.5,4.5 v 43.11963 a 4.50508,4.50508 0 0 1 -4.5,4.49998 z"
       fill="#6c63ff"
       id="path384" />
    <path
       d="m 702.91577,198.5874 h -36.54 a 4.50508,4.50508 0 0 1 -4.5,-4.5 v -43.11961 a 4.50508,4.50508 0 0 1 4.5,-4.5 h 36.54 a 4.50508,4.50508 0 0 1 4.5,4.5 v 43.11963 a 4.50508,4.50508 0 0 1 -4.5,4.49998 z"
       fill="#6c63ff"
       id="path386" />
    <path
       d="m 767.91577,210.5874 h -36.54 a 4.50508,4.50508 0 0 1 -4.5,-4.5 v -43.11961 a 4.50508,4.50508 0 0 1 4.5,-4.5 h 36.54 a 4.50508,4.50508 0 0 1 4.5,4.5 v 43.11963 a 4.50508,4.50508 0 0 1 -4.5,4.49998 z"
       fill="#e6e6e6"
       id="path388" />
    <path
       d="m 738.91577,287.5874 h -36.54 a 4.50508,4.50508 0 0 1 -4.5,-4.5 v -43.11961 a 4.50508,4.50508 0 0 1 4.5,-4.5 h 36.54 a 4.50508,4.50508 0 0 1 4.5,4.5 v 43.11963 a 4.50508,4.50508 0 0 1 -4.5,4.49998 z"
       fill="#e6e6e6"
       id="path390" />
    <path
       d="m 614.91577,271.5874 h -36.54 a 4.50508,4.50508 0 0 1 -4.5,-4.5 v -43.11961 a 4.50508,4.50508 0 0 1 4.5,-4.5 h 36.54 a 4.50508,4.50508 0 0 1 4.5,4.5 v 43.11963 a 4.50508,4.50508 0 0 1 -4.5,4.49998 z"
       fill="#ff6584"
       id="path392" />
    <path
       d="m 543.91577,287.5874 h -36.54 a 4.50508,4.50508 0 0 1 -4.5,-4.5 v -43.11961 a 4.50508,4.50508 0 0 1 4.5,-4.5 h 36.54 a 4.50508,4.50508 0 0 1 4.5,4.5 v 43.11963 a 4.50508,4.50508 0 0 1 -4.5,4.49998 z"
       fill="#e6e6e6"
       id="path394" />
    <path
       d="m 390.91577,355.5874 h -36.54 a 4.50508,4.50508 0 0 1 -4.5,-4.5 v -43.11961 a 4.50508,4.50508 0 0 1 4.5,-4.5 h 36.54 a 4.50508,4.50508 0 0 1 4.5,4.5 v 43.11963 a 4.50508,4.50508 0 0 1 -4.5,4.49998 z"
       fill="#e6e6e6"
       id="path396" />
    <path
       d="m 205.91565,298.5874 h -36.54 a 4.505,4.505 0 0 1 -4.5,-4.5 v -43.11961 a 4.505,4.505 0 0 1 4.5,-4.5 h 36.54 a 4.505,4.505 0 0 1 4.5,4.5 v 43.11963 a 4.505,4.505 0 0 1 -4.5,4.49998 z"
       fill="#ff6584"
       id="path398" />
    <path
       d="m 308.91565,219.5874 h -36.54 a 4.505,4.505 0 0 1 -4.5,-4.5 v -43.11961 a 4.505,4.505 0 0 1 4.5,-4.5 h 36.54 a 4.505,4.505 0 0 1 4.5,4.5 v 43.11963 a 4.505,4.505 0 0 1 -4.5,4.49998 z"
       fill="#e6e6e6"
       id="path400" />
    <path
       d="m 279,100 h -57 a 4,4 0 0 1 0,-8 h 57 a 4,4 0 0 1 0,8 z"
       fill="#cccccc"
       id="path402" />
    <path
       d="m 440,100 h -57 a 4,4 0 0 1 0,-8 h 57 a 4,4 0 0 1 0,8 z"
       fill="#cccccc"
       id="path404" />
    <path
       d="m 591,100 h -57 a 4,4 0 0 1 0,-8 h 57 a 4,4 0 0 1 0,8 z"
       fill="#cccccc"
       id="path406" />
    <path
       d="m 732,100 h -57 a 4,4 0 0 1 0,-8 h 57 a 4,4 0 0 1 0,8 z"
       fill="#cccccc"
       id="path408" />
    <path
       d="m 151.33293,392.89135 a 10.05577,10.05577 0 0 1 -8.70007,-12.73046 L 117,356.29979 l 13.55277,-3.43814 25.20573,20.44382 a 10.11027,10.11027 0 0 1 -4.42557,19.58585 z"
       fill="#ffb8b8"
       id="path410" />
    <polygon
       points="202.496,518.965 184.402,518.965 184.404,566.253 196.664,566.253 "
       fill="#ffb8b8"
       id="polygon412"
       transform="translate(2.32372,3)" />
    <path
       d="m 222.63177,580.63557 -38.53073,0.002 -6.8e-4,-14.88687 23.64388,-0.001 a 14.88686,14.88686 0 0 1 14.88754,14.88618 v 0 z"
       fill="#2f2e41"
       id="path414" />
    <polygon
       points="129.994,516.359 112.509,511.705 100.345,557.401 112.193,560.555 "
       fill="#ffb8b8"
       id="polygon416"
       transform="translate(2.32372,3)" />
    <path
       d="m 134.43669,580.63946 -37.23417,-9.91088 3.8292,-14.38592 22.84826,6.08167 a 14.886819,14.886819 0 0 1 10.55672,18.21512 v 0 z"
       fill="#2f2e41"
       id="path418"
       style="stroke-width:0.999997" />
    <path
       d="m 202.28467,560.29979 h -18.70728 a 4.72981,4.72981 0 0 1 -4.72607,-4.293 l -11.35646,-117.9316 a 3.74767,3.74767 0 0 0 -7.321,-0.71484 l -32.97342,110.19922 a 4.74216,4.74216 0 0 1 -5.7,3.24609 l -17.40308,-4.35156 a 4.74747,4.74747 0 0 1 -3.44727,-5.78711 c 0.28418,-1.11035 28.41065,-111.02832 28.65625,-112.1582 6.37281,-46.96778 13.99707,-59.55371 18.093,-66.31445 0.33911,-0.55958 0.65064,-1.07422 0.93115,-1.56055 0.35108,-0.6084 2.51245,-6.64453 3.88355,-10.56445 a 4.79,4.79 0 0 1 2.43506,-2.97754 c 17.21069,-8.80176 37.34741,-2.709 43.10913,-0.63184 a 4.6821,4.6821 0 0 1 2.33813,1.81543 c 17.28467,26.07129 8.80225,177.49121 6.92627,207.581 a 4.75127,4.75127 0 0 1 -4.73796,4.4434 z"
       fill="#2f2e41"
       id="path420" />
    <circle
       cx="154.00786"
       cy="237.02423"
       r="24.561029"
       fill="#ffb8b8"
       id="circle422" />
    <path
       d="m 151.40551,354.83789 -0.17651,-0.1709 c -0.33105,-0.32031 -33.05566,-32.37988 -28.82056,-62.02441 1.81128,-12.67969 12.07032,-20.78125 29.66773,-23.43067 a 27.13473,27.13473 0 0 1 29.99976,19.1211 l 17.3999,59.48437 z"
       fill="#cccccc"
       id="path424" />
    <path
       d="m 134.65649,377.64062 -23.31836,-23.17089 a 13.13671,13.13671 0 0 1 -3.47973,-12.39161 l 11.28857,-45.91894 a 10.35411,10.35411 0 0 1 13.17989,-7.40039 10.41072,10.41072 0 0 1 6.80908,12.79394 l -11.88448,40.39649 19.21826,20.63672 z"
       fill="#cccccc"
       id="path426" />
    <path
       d="m 259.72805,298.56242 a 10.05577,10.05577 0 0 1 -14.88374,4.02868 l -31.12945,16.13447 1.37589,-13.70578 27.59693,-17.07886 a 10.11028,10.11028 0 0 1 17.04041,10.62149 z"
       fill="#ffb8b8"
       id="path428" />
    <path
       d="m 241.44486,308.76461 -30.34625,13.11355 a 12.80885,12.80885 0 0 1 -12.477,-1.33846 l -38.58893,-27.64906 a 10.355,10.355 0 0 1 -1.97354,-14.98585 10.41025,10.41025 0 0 1 14.40861,-1.568 l 33.08845,26.042 26.30022,-10.17517 z"
       fill="#cccccc"
       id="path430" />
    <path
       d="m 158.07964,244.89453 c 3.03,-3.79642 8.69082,-4.00051 12.85285,-6.50478 5.45181,-3.28033 7.70574,-10.61077 5.94888,-16.726 -1.75686,-6.11523 -6.93808,-10.881 -12.8784,-13.16029 -5.94032,-2.27929 -12.5494,-2.30748 -18.81589,-1.20568 -9.33021,1.64048 -18.51612,5.99512 -24.20655,13.56895 -5.69043,7.57383 -7.13858,18.66583 -1.98149,26.61243 2.37026,3.65236 6.02921,6.66714 6.97549,10.91712 1.2423,5.57954 -2.6714,10.96083 -6.86421,14.846 -4.77673,4.42628 -10.257,8.1334 -14.44192,13.12294 -4.18492,4.98954 -6.97564,11.80621 -5.066,18.03215 1.6,5.21635 6.25591,9.05948 11.36143,10.98408 5.10552,1.9246 10.66607,2.2027 16.12124,2.30939 5.29718,0.10361 10.92363,-0.0252 15.386,-2.88141 4.77715,-3.05764 7.32781,-8.8583 7.51626,-14.52705 0.18845,-5.66875 -1.70587,-11.22252 -4.24464,-16.2945 -1.51323,-3.02314 -3.27267,-5.95256 -4.27818,-9.18027 -1.00551,-3.22771 -1.1797,-6.89016 0.43058,-9.86274 1.69267,-3.12465 5.1171,-5.009 8.6041,-5.69419 0.18117,-0.0356 0.37286,-0.0674 0.57335,-0.0957 a 7.39847,7.39847 0 0 0 6.33328,-8.62766 c -0.39726,-2.21434 -0.36296,-4.33384 0.67382,-5.63279 z"
       fill="#2f2e41"
       id="path432" />
    <polygon
       points="465.137,520.012 483.231,520.013 483.229,567.3 470.969,567.3 "
       fill="#a0616a"
       id="polygon434"
       transform="translate(2.32372,3)" />
    <path
       d="m 464.53572,566.79684 h 23.64386 v 14.88687 h -38.53077 v 0 a 14.88687,14.88687 0 0 1 14.88691,-14.88687 z"
       fill="#2f2e41"
       id="path436" />
    <polygon
       points="536.079,517.917 552.538,510.399 572.184,553.413 561.033,558.506 "
       fill="#a0616a"
       id="polygon438"
       transform="translate(2.32372,3)" />
    <path
       d="m 553.93552,561.95833 21.5067,-9.82318 6.18496,13.54124 -35.04792,16.00813 v 0 a 14.88685,14.88685 0 0 1 7.35626,-19.72619 z"
       fill="#2f2e41"
       id="path440" />
    <path
       d="m 538.80524,410.85699 a 10.05579,10.05579 0 0 0 0.80112,-15.39851 l 14.4116,-32.69992 -18.30864,3.10281 -10.87858,30.57671 a 10.11028,10.11028 0 0 0 13.9745,14.41891 z"
       fill="#a0616a"
       id="path442" />
    <path
       d="m 484.77126,557.83137 h -11.71192 a 4.51686,4.51686 0 0 1 -4.48828,-4.17383 l -6.387,-170.5586 a 4.49977,4.49977 0 0 1 4.92529,-4.80468 l 67.73487,7.19336 a 4.5013,4.5013 0 0 1 4.06225,4.39355 l 1.41943,75.23535 a 3.49205,3.49205 0 0 0 0.23389,1.19336 l 27.78516,72.05274 a 4.49892,4.49892 0 0 1 -2.64307,5.84082 l -11.86841,4.373 a 4.50108,4.50108 0 0 1 -5.55737,-2.16406 l -34.13257,-66.36914 a 4.475,4.475 0 0 1 -0.4043,-1.14258 l -5.83081,-28.09375 a 3.49992,3.49992 0 0 0 -6.904,0.3125 L 489.2422,553.84308 a 4.499,4.499 0 0 1 -4.47094,3.98829 z"
       fill="#2f2e41"
       id="path444" />
    <circle
       cx="490.60315"
       cy="225.17783"
       r="24.561029"
       fill="#a0616a"
       id="circle446" />
    <path
       d="m 507.44677,398.69434 a 87.66432,87.66432 0 0 1 -46.8728,-14.19825 l -0.239,-0.165 0.0247,-0.28955 9.395,-109.416 a 15.4205,15.4205 0 0 1 14.59887,-14.06153 c 12.176,-0.55957 28.531,0.146 37.28589,6.66651 13.23071,9.85449 19.60767,24.69385 17.49561,40.7124 -4.38013,33.21875 0.58178,78.0293 1.16186,83.0293 l 0.042,0.36035 -0.32959,0.15137 a 77.26611,77.26611 0 0 1 -32.5625,7.2104 z"
       fill="#6c63ff"
       id="path448" />
    <path
       d="m 540.18359,391.15771 a 5.007,5.007 0 0 1 -3.68066,-1.62207 l -5.37256,-5.86132 a 5.02581,5.02581 0 0 1 -1.10913,-4.79493 l 12.25073,-41.46386 -18.63989,-39.14356 a 8.8323,8.8323 0 0 1 -0.60376,-5.87939 8.809,8.809 0 0 1 16.31323,-2.084 l 25.29468,41.042 a 11.95092,11.95092 0 0 1 0.72,11.19824 l -20.60986,45.665 a 4.98754,4.98754 0 0 1 -3.76636,2.87988 5.05373,5.05373 0 0 1 -0.79642,0.064 z"
       fill="#6c63ff"
       id="path450" />
    <path
       d="m 367.06151,311.95257 a 10.05577,10.05577 0 0 0 14.99854,-3.57767 l 35.438,4.59612 -8.14419,-16.68847 -32.404,-1.806 a 10.11028,10.11028 0 0 0 -9.88836,17.476 z"
       fill="#a0616a"
       id="path452" />
    <path
       d="m 445.17309,321.06689 a 13.42535,13.42535 0 0 1 -1.84472,-0.12744 l -55.751,-7.73242 a 5.54112,5.54112 0 0 1 -4.25073,-3.11133 5.65746,5.65746 0 0 1 -0.31787,-0.8291 h -2.5e-4 a 5.56408,5.56408 0 0 1 0.575,-4.43164 l 4.61353,-7.64893 a 5.58411,5.58411 0 0 1 4.75586,-2.686 h 0.008 l 48.59594,0.0557 36.29395,-32.51709 a 9.86788,9.86788 0 0 1 6.10718,-2.49951 9.83491,9.83491 0 0 1 7.37256,16.81543 l -36.21555,40.27823 a 13.364,13.364 0 0 1 -9.9419,4.4341 z"
       fill="#6c63ff"
       id="path454" />
    <path
       d="m 493.39536,247.02798 c 2.2445,-5.19457 4.14379,-12.11253 -0.16123,-15.78514 -2.49712,-2.13029 -6.09385,-2.13469 -9.36546,-2.39972 -9.21732,-0.74668 -18.70553,-4.98771 -23.21077,-13.06356 -4.50524,-8.07585 -1.98923,-20.08442 6.51023,-23.728 5.72923,-2.456 12.29743,-0.78291 18.29443,0.91767 l 18.0058,5.10593 c 5.35006,1.51712 10.96737,3.19025 14.819,7.20149 6.14268,6.39729 5.6835,17.21166 0.80459,24.618 -4.87891,7.40634 -12.22635,15.13079 -20.63767,17.94281 z"
       fill="#2f2e41"
       id="path456" />
  </g>
</svg>
