<?xml version="1.0" encoding="UTF-8" standalone="no"?>
<svg
   data-name="Layer 1"
   width="405.94938"
   height="611.97003"
   viewBox="0 0 405.94938 611.97003"
   version="1.1"
   id="svg25262"
   sodipodi:docname="undraw_contract_re_ves9.svg"
   inkscape:version="1.1.2 (0a00cf5339, 2022-02-04)"
   xmlns:inkscape="http://www.inkscape.org/namespaces/inkscape"
   xmlns:sodipodi="http://sodipodi.sourceforge.net/DTD/sodipodi-0.dtd"
   xmlns="http://www.w3.org/2000/svg"
   xmlns:svg="http://www.w3.org/2000/svg">
  <defs
     id="defs25266" />
  <sodipodi:namedview
     id="namedview25264"
     pagecolor="#ffffff"
     bordercolor="#666666"
     borderopacity="1.0"
     inkscape:pageshadow="2"
     inkscape:pageopacity="0.0"
     inkscape:pagecheckerboard="0"
     showgrid="false"
     inkscape:zoom="1.0523391"
     inkscape:cx="202.88137"
     inkscape:cy="305.50988"
     inkscape:window-width="1920"
     inkscape:window-height="1056"
     inkscape:window-x="1920"
     inkscape:window-y="1080"
     inkscape:window-maximized="1"
     inkscape:current-layer="svg25262" />
  <path
     d="M667.77057,719.51882A30.61479,30.61479,0,0,0,686.86983,707.986c.46409-.60573,1.37967.1464.91614.75139a31.844,31.844,0,0,1-19.89891,11.96059c-.75324.12727-.86564-1.05254-.11649-1.17912Z"
     transform="translate(-396.87063 -155.33997)"
     fill="#fff"
     id="path25199" />
  <path
     d="M639.32,767.29h.25v.02l.06-.02H655.5c-4.73-.81-9.45-1.44-14.18-.53-.11.02-.21.04-.32.07-.48.09-.96.21-1.44.34-.03.01-.07.02-.1.03a.33794.33794,0,0,0-.12.06.14932.14932,0,0,0-.07.03Z"
     transform="translate(-396.87063 -155.33997)"
     fill="#fff"
     id="path25205" />
  <path
     d="M748.13562,718.74271a8.991,8.991,0,0,0,4.86925,7.00539c.68217.34312.06083,1.35248-.6169,1.01159a10.07517,10.07517,0,0,1-5.40388-7.73789.61235.61235,0,0,1,.43622-.71531.59544.59544,0,0,1,.71531.43622Z"
     transform="translate(-396.87063 -155.33997)"
     fill="#fff"
     id="path25213" />
  <path
     d="M802.82,230.34a11.00657,11.00657,0,0,0-11-11h-295a11.02189,11.02189,0,0,0-11,10.95c-9.96,94.97-11.61,188.26-4.94,278.05q1.215,16.66506,2.84,33.16.87,8.835,1.85,17.62c.08.76.16,1.52.25,2.28a11.01977,11.01977,0,0,0,11,10.94h295a11.00658,11.00658,0,0,0,11-11v-.11c-11.93-105.77-11.93-217.06,0-330.79Z"
     transform="translate(-396.87063 -155.33997)"
     fill="#fff"
     id="path25217" />
  <path
     d="M802.82,230.34a11.00657,11.00657,0,0,0-11-11h-295a11.02189,11.02189,0,0,0-11,10.95c-9.96,94.97-11.61,188.26-4.94,278.05q1.215,16.66506,2.84,33.16.87,8.835,1.85,17.62c.08.76.16,1.52.25,2.28a11.01977,11.01977,0,0,0,11,10.94h295a11.00658,11.00658,0,0,0,11-11v-.11c-11.93-105.77-11.93-217.06,0-330.79Zm-2,331.06a9.0075,9.0075,0,0,1-9,8.94h-295a9.01353,9.01353,0,0,1-9-9v-.11c-.07-.64-.14-1.29-.21-1.93q-1.035-9.18-1.93-18.41-1.575-16.185-2.79-32.55c-6.67-89.74-5.03-182.97,4.93-277.9v-.1a9.01357,9.01357,0,0,1,9-9h295a9.00308,9.00308,0,0,1,9,8.95C788.89,344.11,788.89,455.52,800.82,561.4Z"
     transform="translate(-396.87063 -155.33997)"
     fill="#e4e4e4"
     id="path25219" />
  <path
     id="a974c3de-8d03-408b-a459-3ce6ba461bdb-886"
     data-name="Path 142"
     d="M517.1541,321.63028a2.86635,2.86635,0,0,0,0,5.73268H756.88526a2.86635,2.86635,0,0,0,0-5.73268Z"
     transform="translate(-396.87063 -155.33997)"
     fill="#e6e6e6" />
  <path
     id="e9133026-9528-4ac3-aa69-83f109aff1e3-887"
     data-name="Path 143"
     d="M517.1541,338.83a2.86635,2.86635,0,0,0,0,5.73269H679.8988a2.86635,2.86635,0,0,0,0-5.73269Z"
     transform="translate(-396.87063 -155.33997)"
     fill="#e6e6e6" />
  <path
     id="a406ca83-8296-4426-a4ed-8cd27cbcb96b-888"
     data-name="Path 142"
     d="M517.1541,355.64049a2.86635,2.86635,0,0,0,0,5.73269H756.88526a2.86635,2.86635,0,0,0,0-5.73269Z"
     transform="translate(-396.87063 -155.33997)"
     fill="#e6e6e6" />
  <path
     id="be321b5a-3e39-41eb-b9b2-711d73db0143-889"
     data-name="Path 143"
     d="M517.1541,372.84017a2.86635,2.86635,0,0,0,0,5.73268H679.8988a2.86635,2.86635,0,0,0,0-5.73268Z"
     transform="translate(-396.87063 -155.33997)"
     fill="#e6e6e6" />
  <path
     id="a5a7e885-834f-470d-9162-1a1fa51c1163-890"
     data-name="Path 142"
     d="M517.1541,418.63028a2.86635,2.86635,0,0,0,0,5.73268H756.88526a2.86635,2.86635,0,0,0,0-5.73268Z"
     transform="translate(-396.87063 -155.33997)"
     fill="#e6e6e6" />
  <path
     id="a5fcdb43-4805-483f-9462-6a7e4850dca6-891"
     data-name="Path 143"
     d="M517.1541,435.83a2.86635,2.86635,0,0,0,0,5.73269H679.8988a2.86635,2.86635,0,0,0,0-5.73269Z"
     transform="translate(-396.87063 -155.33997)"
     fill="#e6e6e6" />
  <path
     id="b765b6a8-7afa-43c2-95d1-39dcbde99f83-892"
     data-name="Path 142"
     d="M517.1541,452.64049a2.86635,2.86635,0,0,0,0,5.73269H756.88526a2.86635,2.86635,0,0,0,0-5.73269Z"
     transform="translate(-396.87063 -155.33997)"
     fill="#e6e6e6" />
  <path
     id="e421dd9d-74a5-4920-9c7d-c121b8cd01e8-893"
     data-name="Path 143"
     d="M517.1541,469.84017a2.86635,2.86635,0,0,0,0,5.73268H679.8988a2.86635,2.86635,0,0,0,0-5.73268Z"
     transform="translate(-396.87063 -155.33997)"
     fill="#e6e6e6" />
  <path
     id="ea3081fc-4e36-4189-92a3-e6d1b5b4a040-894"
     data-name="Path 154"
     d="M564.58787,286.03993h-45.788a2.23937,2.23937,0,0,1-2.23686-2.23686v-7.33618a2.23938,2.23938,0,0,1,2.23686-2.23686h45.788a2.23937,2.23937,0,0,1,2.23686,2.23686v7.33618A2.23937,2.23937,0,0,1,564.58787,286.03993Z"
     transform="translate(-396.87063 -155.33997)"
     fill="#6c63ff" />
  <path
     d="M723.65574,522.01636l-14.02509,4.635q-3.50626,1.15874-7.01254,2.31748c-2.165.71282-4.50763,1.56067-6.82505,1.25408-1.60173-.21191-3.42762-1.13376-3.92664-2.78166-.47217-1.55926.52889-3.19054,1.74121-4.11282,3.34693-2.54616,7.57888.04548,9.95021,2.68207,2.90077,3.22526,4.54236,7.38866,7.26273,10.76459a25.91183,25.91183,0,0,0,8.9848,7.15524c6.94111,3.27752,15.40765,2.92923,21.59881-1.84663,7.39283-5.70282,8.1469-15.58664,8.18623-24.21a1.5009,1.5009,0,0,0-3,0c-.03564,7.81532-.48018,17.39559-7.606,22.28575-6.82609,4.68443-15.79715,3.442-22.08155-1.54922-3.502-2.78134-5.65633-6.40818-7.95574-10.16383-2.24445-3.66588-5.03132-7.22-9.25516-8.64559a8.36411,8.36411,0,0,0-9.986,3.4866,6.34658,6.34658,0,0,0,2.93421,9.0659c4.89777,2.33384,10.50083-.40085,15.21683-1.95938l16.59636-5.48469c1.82454-.603,1.043-3.50107-.79752-2.89284Z"
     transform="translate(-396.87063 -155.33997)"
     fill="#6c63ff"
     id="path25230" />
  <polygon
     points="285.224 587.176 275.389 590.416 258.211 554.026 272.726 549.244 285.224 587.176"
     fill="#9f616a"
     id="polygon25232" />
  <path
     d="M689.11,750.78l-.67-2.03-1.76-5.35-1.2-3.63995-3.28,1.08-.68-.05-9.01-.61-1.2-.08-1.78-.12-1.84-.13-5.14,7.47h-.01a15.25721,15.25721,0,0,0-8.92,7.68c-.11.22-.21.44-.31.66a12.84856,12.84856,0,0,0-.63,1.66,15.21387,15.21387,0,0,0-.42,7.57995,17.39516,17.39516,0,0,0,.49,1.85l.03.1.12.37.72-.24,6.32-2.08,22.14-7.29,4.38995-1.45,1.35-.45h.01l2.62-.86Z"
     transform="translate(-396.87063 -155.33997)"
     fill="#2f2e41"
     id="path25234" />
  <polygon
     points="192.004 595.731 181.65 595.73 176.724 555.792 192.006 555.793 192.004 595.731"
     fill="#9f616a"
     id="polygon25236" />
  <path
     d="M572.30444,575.99249l-4.59012,7.94008s-5.04361,1.37761-3.39526,17.81863c1.16394,11.60935,1.54142,63.58967,4.4719,97.359,1.21963,14.05441,2.88147,24.95445,5.22627,28.477l1.44353,1.2929,15.06687,1.43981.37991-.13288,5.53277-39.07637A65.654,65.654,0,0,0,596,670v0l-1-11,13.8729-55.69726S623,639,632,673c2.1665,8.18456,10.39581,13.38972,13.51577,20.41292,1.04534,2.35311,2.07242,4.63315,3.07449,6.82078C655.18925,714.64,658.497,725.12843,661,726h2l12-4,2.3606-5.93511L659,662l-13.74915-87.29443C619.05353,560.61945,594.47925,559.05219,572.30444,575.99249Z"
     transform="translate(-396.87063 -155.33997)"
     fill="#2f2e41"
     id="path25238" />
  <path
     d="M647.35,458.37a40.79027,40.79027,0,0,0-3.18-5.73A29.45877,29.45877,0,0,0,633,442.43l-3.94-.87L622,440l-3.72-4.17-6.1-6.83h-21l-2.81,6.83-2.36,5.73L585,444l-17.98,8.99c-.01,0-.01,0-.02.01q.36,2.7.71,5.37.76492,5.805,1.44,11.47.345,2.88006.66,5.73,1.005,8.93994,1.73,17.57.645,7.70994,1.03,15.2a334.12564,334.12564,0,0,1,.14,34.05c-.14,2.67,2.51,5.71,2.3,8.32-.35,4.26-3.64,8.04-4.22,12.11005-.36,2.5-.2,5.16-.83,7.52a8.41131,8.41131,0,0,1-.78,1.98c0,.01-.01.01-.01.02-7.2,12.86-1.55,6.72-2.22,9.61l.32.08c.15.04.61.16,1.35.33C572.85,583.37,590.29,567,602,567c7.03,0,25.64,11.56,31.87,12.4,4.93.66,9.33,1.26,11.95-1.05a6.12509,6.12509,0,0,0,1.69-2.48l.03-.09-.01-.09-.25-3.35-.15-2-2.14-28.7a10.17472,10.17472,0,0,1-1.3-10.69l.44-.93005-1.62-21.68-.3-4.05-.11-1.37v-.01l-.78-10.47,1.88-5.72v-.01L646.86,475.57l1.88-5.73,1.18-3.6L650,466A40.93176,40.93176,0,0,0,647.35,458.37Z"
     transform="translate(-396.87063 -155.33997)"
     fill="#6c63ff"
     id="path25240" />
  <path
     d="M665.59359,561.77947,645.43388,509.6776l-9.36331-19.025,18.005-9.94668,14.50089,25.54927,9.72047,53.38122a9.29014,9.29014,0,1,1-12.7033,2.14306Z"
     transform="translate(-396.87063 -155.33997)"
     fill="#9f616a"
     id="path25242" />
  <path
     d="M666,490l-5.16-3.34L654.91,475.57l-3.06-5.73-1.93-3.6-.82-1.54-9.27-6.33-6.26-4.28-5.1,4.28-2.43,2.04,2.38,9.43,1.44,5.73L633,488l9.21,16.29,2.29,4.05,1.31,2.33.01.02.18.31,23.27-.97L670,510l.04-1.66.02-.6c.01-.3.01-.6.01-.9A36.95469,36.95469,0,0,0,666,490Z"
     transform="translate(-396.87063 -155.33997)"
     fill="#6c63ff"
     id="path25244" />
  <path
     d="M489.87479,541.05921l41.241-37.68555,14.333-15.62653,15.80017,13.17079-18.54935,22.78075L496.47975,552.12a9.29014,9.29014,0,1,1-6.605-11.0608Z"
     transform="translate(-396.87063 -155.33997)"
     fill="#9f616a"
     id="path25246" />
  <path
     d="M575.01,475.57l-.08-5.73-.15-11.47-.06006-4.45-.17-.12a7.51537,7.51537,0,0,0-3.09-1.16,8.95876,8.95876,0,0,0-2.93,0,10.47433,10.47433,0,0,0-1.51.35c-.01,0-.01,0-.02.01a17.29848,17.29848,0,0,0-7.57,5.36l-.01.01a74.68164,74.68164,0,0,0-7.94,11.47c-1.13,1.92-2.21,3.86-3.22,5.73-3.82,7.11-6.57,13.27-6.62,13.38l-11.42,14.83.16.27,2.51,4.29,9.2,15.73,1.46,2.5,3.73-1.99A21.68709,21.68709,0,0,0,557,514l1.33-5.08.49-.58,12.72-15.2,3.64-4.36Z"
     transform="translate(-396.87063 -155.33997)"
     fill="#6c63ff"
     id="path25248" />
  <circle
     cx="599.59286"
     cy="406.34644"
     r="19.25073"
     transform="translate(-294.42147 777.76748) rotate(-80.78251)"
     fill="#9f616a"
     id="circle25250" />
  <path
     d="M580.98375,393.7265c-.85566-2.99456-2.56676-5.56132-1.71118-5.56132s1.28338-2.139,1.28338-2.139.85557-.42779,1.28338,0,.85557-2.99455.85557-2.99455.42781-1.28338.85557-.42779.42781.42779.85558-.85559,2.56689-2.139,2.56689-2.139,8.12809.42779,9.41147-1.28338,15.82838-.4278,18.82295,1.71117S630,386,623,398c4,7-1.97173,19.485-3.51473,20.96637-2.43993,2.34241-4.12908,3.187-15.67422,5.48425C601.55161,424.9002,596,406,596,406S581.83941,396.72106,580.98375,393.7265Z"
     transform="translate(-396.87063 -155.33997)"
     fill="#2f2e41"
     id="path25252" />
  <path
     d="M589.5,749.51l-.62-.25-11.14-4.54-1.71-.69-7.22,5.48h-.01a15.39806,15.39806,0,0,0-15.38,15.39v.5h39.53V749.51Z"
     transform="translate(-396.87063 -155.33997)"
     fill="#2f2e41"
     id="path25254" />
</svg>
