<?xml version="1.0" encoding="UTF-8" standalone="no"?>
<svg
   data-name="Layer 1"
   width="785.16603"
   height="507.75418"
   viewBox="0 0 785.16603 507.75418"
   version="1.1"
   id="svg130"
   sodipodi:docname="undraw_file_bundle_re_6q1e.svg"
   inkscape:version="1.1.2 (0a00cf5339, 2022-02-04)"
   xmlns:inkscape="http://www.inkscape.org/namespaces/inkscape"
   xmlns:sodipodi="http://sodipodi.sourceforge.net/DTD/sodipodi-0.dtd"
   xmlns="http://www.w3.org/2000/svg"
   xmlns:svg="http://www.w3.org/2000/svg">
  <defs
     id="defs134" />
  <sodipodi:namedview
     id="namedview132"
     pagecolor="#ffffff"
     bordercolor="#666666"
     borderopacity="1.0"
     inkscape:pageshadow="2"
     inkscape:pageopacity="0.0"
     inkscape:pagecheckerboard="0"
     showgrid="false"
     inkscape:zoom="1.2683303"
     inkscape:cx="392.24799"
     inkscape:cy="262.94413"
     inkscape:window-width="1920"
     inkscape:window-height="1056"
     inkscape:window-x="1920"
     inkscape:window-y="1080"
     inkscape:window-maximized="1"
     inkscape:current-layer="svg130" />
  <path
     d="M755.42286,538.5541c-80.77393.0039-151.05273-60.252-161.43506-142.4375l1.98438-.251c10.2539,81.1709,79.67675,140.68359,159.45215,140.68848a161.36228,161.36228,0,0,0,20.27343-1.2793c87.98584-11.11524,150.52442-91.73926,139.40918-179.7251l1.98438-.251c11.25342,89.07959-52.063,170.70752-141.14258,181.96045A163.74252,163.74252,0,0,1,755.42286,538.5541Z"
     transform="translate(-207.41698 -196.12291)"
     fill="#3f3d56"
     id="path2" />
  <path
     d="M819.834,276.76113a56.086,56.086,0,1,1,104.91651-39.6875l-1.8711.708a54.08546,54.08546,0,1,0-101.17431,38.27149Z"
     transform="translate(-207.41698 -196.12291)"
     fill="#3f3d56"
     id="path4" />
  <path
     d="M982.30624,374.65269H880.64118a10.28839,10.28839,0,0,1-10.27672-10.27678V229.75979A10.28839,10.28839,0,0,1,880.64118,219.483H982.30624A10.28841,10.28841,0,0,1,992.583,229.75979V364.37591A10.28841,10.28841,0,0,1,982.30624,374.65269Z"
     transform="translate(-207.41698 -196.12291)"
     fill="#e6e6e6"
     id="path6" />
  <path
     d="M941.91309,366.5873H887.78761a9.63563,9.63563,0,0,1-9.625-9.62451v-119.79a9.63563,9.63563,0,0,1,9.625-9.62451h87.37256a9.63521,9.63521,0,0,1,9.62451,9.62451v86.54346A42.91981,42.91981,0,0,1,941.91309,366.5873Z"
     transform="translate(-207.41698 -196.12291)"
     fill="#fff"
     id="path8" />
  <path
     d="M966.444,287.62093H896.50345a2.281,2.281,0,1,1,0-4.562H966.444a2.281,2.281,0,1,1,0,4.562Z"
     transform="translate(-207.41698 -196.12291)"
     fill="#e4e4e4"
     id="path10" />
  <path
     d="M966.444,296.63427H896.50345a2.28111,2.28111,0,0,1,0-4.56221H966.444a2.2811,2.2811,0,1,1,0,4.56221Z"
     transform="translate(-207.41698 -196.12291)"
     fill="#e4e4e4"
     id="path12" />
  <path
     d="M926.821,305.6476H896.50345a2.2811,2.2811,0,0,1,0-4.56221H926.821a2.2811,2.2811,0,0,1,0,4.56221Z"
     transform="translate(-207.41698 -196.12291)"
     fill="#e4e4e4"
     id="path14" />
  <path
     d="M966.444,250.81305H896.50345a2.281,2.281,0,1,1,0-4.562H966.444a2.281,2.281,0,1,1,0,4.562Z"
     transform="translate(-207.41698 -196.12291)"
     fill="#e4e4e4"
     id="path16" />
  <path
     d="M966.444,259.82638H896.50345a2.2811,2.2811,0,0,1,0-4.5622H966.444a2.2811,2.2811,0,1,1,0,4.5622Z"
     transform="translate(-207.41698 -196.12291)"
     fill="#e4e4e4"
     id="path18" />
  <path
     d="M926.821,268.83972H896.50345a2.28111,2.28111,0,0,1,0-4.56221H926.821a2.28111,2.28111,0,0,1,0,4.56221Z"
     transform="translate(-207.41698 -196.12291)"
     fill="#e4e4e4"
     id="path20" />
  <path
     d="M966.444,325.717H896.50345a2.281,2.281,0,1,1,0-4.562H966.444a2.281,2.281,0,1,1,0,4.562Z"
     transform="translate(-207.41698 -196.12291)"
     fill="#6c63ff"
     id="path22" />
  <path
     d="M907.444,334.73033H896.50345a2.28111,2.28111,0,0,1,0-4.56221H907.444a2.2811,2.2811,0,1,1,0,4.56221Z"
     transform="translate(-207.41698 -196.12291)"
     fill="#6c63ff"
     id="path24" />
  <path
     d="M926.821,343.74366H896.50345a2.2811,2.2811,0,0,1,0-4.56221H926.821a2.2811,2.2811,0,0,1,0,4.56221Z"
     transform="translate(-207.41698 -196.12291)"
     fill="#6c63ff"
     id="path26" />
  <path
     d="M595.50392,370.14A94.03111,94.03111,0,0,1,771.40186,303.602l-1.87109.708A92.03055,92.03055,0,1,0,597.375,369.432Z"
     transform="translate(-207.41698 -196.12291)"
     fill="#3f3d56"
     id="path28" />
  <path
     d="M670.11717,647.51092h-218.533A22.11531,22.11531,0,0,1,429.494,625.42059V336.058a22.1153,22.1153,0,0,1,22.09021-22.09033h218.533A22.11533,22.11533,0,0,1,692.2075,336.058V625.42059A22.11533,22.11533,0,0,1,670.11717,647.51092Z"
     transform="translate(-207.41698 -196.12291)"
     fill="#e6e6e6"
     id="path36" />
  <path
     d="M586.70948,629.6H466.94532a20.1369,20.1369,0,0,1-20.11377-20.11425V351.99257a20.13649,20.13649,0,0,1,20.11377-20.11377H654.75587a20.13649,20.13649,0,0,1,20.11377,20.11377V541.43984A88.26013,88.26013,0,0,1,586.70948,629.6Z"
     transform="translate(-207.41698 -196.12291)"
     fill="#fff"
     id="path38" />
  <path
     d="M636.02059,381.31282H485.68075a4.90308,4.90308,0,1,1,0-9.80615H636.02059a4.90308,4.90308,0,1,1,0,9.80615Z"
     transform="translate(-207.41698 -196.12291)"
     fill="#6c63ff"
     id="path40" />
  <path
     d="M636.02059,400.68733H485.68075a4.90332,4.90332,0,0,1,0-9.80664H636.02059a4.90332,4.90332,0,1,1,0,9.80664Z"
     transform="translate(-207.41698 -196.12291)"
     fill="#6c63ff"
     id="path42" />
  <path
     d="M550.84945,420.06184h-65.1687a4.90332,4.90332,0,0,1,0-9.80664h65.1687a4.90332,4.90332,0,1,1,0,9.80664Z"
     transform="translate(-207.41698 -196.12291)"
     fill="#6c63ff"
     id="path44" />
  <path
     d="M636.02059,460.63927H485.68075a4.90308,4.90308,0,1,1,0-9.80615H636.02059a4.90308,4.90308,0,1,1,0,9.80615Z"
     transform="translate(-207.41698 -196.12291)"
     fill="#e4e4e4"
     id="path46" />
  <path
     d="M636.02059,480.01378H485.68075a4.90332,4.90332,0,0,1,0-9.80664H636.02059a4.90332,4.90332,0,0,1,0,9.80664Z"
     transform="translate(-207.41698 -196.12291)"
     fill="#e4e4e4"
     id="path48" />
  <path
     d="M550.84945,499.38829h-65.1687a4.90332,4.90332,0,0,1,0-9.80664h65.1687a4.90332,4.90332,0,1,1,0,9.80664Z"
     transform="translate(-207.41698 -196.12291)"
     fill="#e4e4e4"
     id="path50" />
  <path
     d="M636.02059,539.96572H485.68075a4.90308,4.90308,0,1,1,0-9.80615H636.02059a4.90308,4.90308,0,1,1,0,9.80615Z"
     transform="translate(-207.41698 -196.12291)"
     fill="#e4e4e4"
     id="path52" />
  <path
     d="M636.02059,559.34023H485.68075a4.90332,4.90332,0,0,1,0-9.80664H636.02059a4.90332,4.90332,0,0,1,0,9.80664Z"
     transform="translate(-207.41698 -196.12291)"
     fill="#e4e4e4"
     id="path54" />
  <path
     d="M550.84945,578.71475h-65.1687a4.90333,4.90333,0,0,1,0-9.80665h65.1687a4.90333,4.90333,0,0,1,0,9.80665Z"
     transform="translate(-207.41698 -196.12291)"
     fill="#e4e4e4"
     id="path56" />
  <path
     d="M838.49266,432.65269H727.82291a11.19966,11.19966,0,0,1-11.187-11.187V274.92632a11.19967,11.19967,0,0,1,11.187-11.187H838.49266a11.19968,11.19968,0,0,1,11.187,11.187V421.46568A11.19968,11.19968,0,0,1,838.49266,432.65269Z"
     transform="translate(-207.41698 -196.12291)"
     fill="#e6e6e6"
     id="path58" />
  <path
     d="M797.46681,423.82851H735.60206a10.4446,10.4446,0,0,1-10.43262-10.43262V282.996a10.4447,10.4447,0,0,1,10.43262-10.43311h95.11133a10.4448,10.4448,0,0,1,10.4331,10.43311v97.15332A43.72886,43.72886,0,0,1,797.46681,423.82851Z"
     transform="translate(-207.41698 -196.12291)"
     fill="#fff"
     id="path60" />
  <path
     d="M821.22544,297.84431h-76.1353a2.483,2.483,0,1,1,0-4.966h76.1353a2.483,2.483,0,1,1,0,4.966Z"
     transform="translate(-207.41698 -196.12291)"
     fill="#e4e4e4"
     id="path62" />
  <path
     d="M821.22544,307.656h-76.1353a2.48315,2.48315,0,0,1,0-4.96629h76.1353a2.48315,2.48315,0,0,1,0,4.96629Z"
     transform="translate(-207.41698 -196.12291)"
     fill="#e4e4e4"
     id="path64" />
  <path
     d="M778.093,317.46764H745.09014a2.48315,2.48315,0,0,1,0-4.96629H778.093a2.48315,2.48315,0,0,1,0,4.96629Z"
     transform="translate(-207.41698 -196.12291)"
     fill="#e4e4e4"
     id="path66" />
  <path
     d="M821.22544,338.01691h-76.1353a2.483,2.483,0,1,1,0-4.966h76.1353a2.483,2.483,0,1,1,0,4.966Z"
     transform="translate(-207.41698 -196.12291)"
     fill="#6c63ff"
     id="path68" />
  <path
     d="M801.22544,347.82858h-56.1353a2.48314,2.48314,0,0,1,0-4.96629h56.1353a2.48314,2.48314,0,0,1,0,4.96629Z"
     transform="translate(-207.41698 -196.12291)"
     fill="#6c63ff"
     id="path70" />
  <path
     d="M778.093,357.64024H745.09014a2.48315,2.48315,0,0,1,0-4.96629H778.093a2.48315,2.48315,0,0,1,0,4.96629Z"
     transform="translate(-207.41698 -196.12291)"
     fill="#6c63ff"
     id="path72" />
  <path
     d="M821.22544,378.18951h-76.1353a2.483,2.483,0,1,1,0-4.966h76.1353a2.483,2.483,0,1,1,0,4.966Z"
     transform="translate(-207.41698 -196.12291)"
     fill="#e4e4e4"
     id="path74" />
  <path
     d="M821.22544,388.00118h-76.1353a2.48314,2.48314,0,0,1,0-4.96629h76.1353a2.48314,2.48314,0,0,1,0,4.96629Z"
     transform="translate(-207.41698 -196.12291)"
     fill="#e4e4e4"
     id="path76" />
  <path
     d="M778.093,397.81284H745.09014a2.48315,2.48315,0,0,1,0-4.96629H778.093a2.48315,2.48315,0,0,1,0,4.96629Z"
     transform="translate(-207.41698 -196.12291)"
     fill="#e4e4e4"
     id="path78" />
  <path
     d="M336.81243,482.99824a8.56625,8.56625,0,0,0-1.70826-13.02377l7.02037-29.621-14.85846,5.42843-4.3887,27.29637a8.61267,8.61267,0,0,0,13.935,9.92Z"
     transform="translate(-207.41698 -196.12291)"
     fill="#ffb8b8"
     id="path80" />
  <path
     d="M372.5436,358.87081l-5.96311,15.33373s2.55562,15.33372-1.70375,18.74122-2.55562,3.40749-2.55562,5.96311a13.10385,13.10385,0,0,1-5.11124,9.37061c-3.4075,2.55562-18.74122,54.51991-18.74122,54.51991H323.13493a48.04248,48.04248,0,0,0,0-11.92623c-.85187-5.96311,2.55562-21.29684,4.25937-23.85246s0-5.96311,0-11.07436,3.4075-7.66686,3.4075-16.18559,10.22248-74.96488,9.3706-82.63174,8.51874-14.48185,8.51874-14.48185h8.51874Z"
     transform="translate(-207.41698 -196.12291)"
     fill="#6c63ff"
     id="path82" />
  <polygon
     points="201.206 195.271 215.379 258.521 124.556 252.871 149.253 190.754 201.206 195.271"
     fill="#ffb8b8"
     id="polygon84" />
  <path
     d="M297.5716,703.87709h1.58008c.5-.81,1.04-1.6,1.58-2.38q1.29-1.81494,2.66-3.55c.79-1,1.58-1.99,2.37-2.98.81994-1.03,1.63-2.06,2.42-3.12l-.93-1.02c-.15.2-.29993.4-.46008.6-2.55994,3.37-5.32984,6.61005-7.7,10.07C298.56159,702.27712,298.05159,703.06709,297.5716,703.87709Z"
     transform="translate(-207.41698 -196.12291)"
     fill="#fff"
     id="path98" />
  <polygon
     points="186.082 487.193 196.284 487.192 201.138 447.841 186.08 447.841 186.082 487.193"
     fill="#ffb8b8"
     id="polygon108" />
  <path
     d="M390.04418,678.28261l16.12758-.9626v6.90976l15.33294,10.58948a4.3161,4.3161,0,0,1-2.45255,7.86784H399.85166l-3.30949-6.83481-1.2922,6.83481h-7.23935Z"
     transform="translate(-207.41698 -196.12291)"
     fill="#2f2e41"
     id="path110" />
  <polygon
     points="89.657 482.117 99.628 484.279 112.713 446.851 97.998 443.66 89.657 482.117"
     fill="#ffb8b8"
     id="polygon112" />
  <path
     d="M294.76484,672.58892l15.96506,2.47838L309.265,681.82l12.7394,13.59941a4.3161,4.3161,0,0,1-4.06481,7.169l-18.764-4.07057-1.78527-7.38107-2.71182,6.40549-7.07479-1.53476Z"
     transform="translate(-207.41698 -196.12291)"
     fill="#2f2e41"
     id="path114" />
  <path
     d="M425.11476,507.53416c-7.16,39.35-8.95,56.34-8.95,56.34s5.37,6.26,1.79,9.84,0,10.73,0,10.73L408.583,659.28261l-2,11-18.76824-2.64847,2.76824-10.35153-4.81823-71.93845s-3.58-7.16-1.79-8.95c1.79-1.79-1.79-12.52-1.79-12.52l-4.47-84.96-27.73,93.01s2.68994,3.58,0,6.26c-2.68,2.68-8.04,16.1-8.04,16.1L321.583,648.28261l-4,8-2.12823-1.00846-9.36-1.76-1.72-.31994-3.06-.58-1.97-.37-.67005-.12-3.24-.61005.98-4.35,7.16821-10.88156,7.29175-53.36844.32-1.43.34-1.51s-1.79-4.47.88995-7.16a6.98826,6.98826,0,0,0,1.79-6.26,2.44073,2.44073,0,0,1-.24-.3,3.71248,3.71248,0,0,1-.64-1.46c-.24-1.12-.03-2.69,1.78-4.5a7.63531,7.63531,0,0,0,1.27-1.82c2.72-5.15,4.09-16.06,4.09-16.06s2.42-86.41,10.34-99.61c.42-.69,8.82779-13.9365,9.2678-14.20652,8.94-5.36,78.71357,1.04342,78.71357,1.04342s4.21864,11.33309,4.40864,12.51308C424.23482,448.78416,431.18477,474.15416,425.11476,507.53416Z"
     transform="translate(-207.41698 -196.12291)"
     fill="#2f2e41"
     id="path118" />
  <path
     d="M497.51926,315.42181a8.56624,8.56624,0,0,1-11.04858,7.10391l-18.08777,24.48513-5.4475-14.85148L480.947,311.18476a8.61267,8.61267,0,0,1,16.57223,4.23705Z"
     transform="translate(-207.41698 -196.12291)"
     fill="#ffb8b8"
     id="path120" />
  <path
     d="M332.47706,419.1371c-1.6582,0-2.6001-.32519-2.96484-1.02246-.53516-1.02343.39355-2.36035,1.46875-3.90918a11.959,11.959,0,0,0,1.86328-3.35644c.64306-2.57227,4.9834-67.54688,2.3872-80.5293-.60058-3.00391-.08349-6.85449,1.53614-11.44434,4.42431-12.53515,10.46338-16.38769,22.49414-24.06152q1.46484-.93457,3.05078-1.95215c1.36767-.8789,1.2915-3.793,1.21094-6.8789-.08936-3.42969-.18213-6.97657,1.498-9.19336l.10938-.14453.17627-.041c4.064-.93945,17.73242-2.68359,25.82715.0127l.11181.03808.0835.083c1.92285,1.92285,2.09814,5.64746,2.26758,9.249.13867,2.957.27,5.749,1.35791,6.96192,8.31689,9.2705,17.74951,9.08984,17.84521,9.08789l.46729-.01367.04638.46484c3.61768,36.79785,9.44971,92.33789,10.689,94.52344a.6524.6524,0,0,1,.02051.67578C422.20411,401.08632,338.72706,419.1371,332.47706,419.1371Zm90.689-21.5791Z"
     transform="translate(-207.41698 -196.12291)"
     fill="#6c63ff"
     id="path122" />
  <circle
     cx="179.38366"
     cy="45.39742"
     r="24.66737"
     fill="#ffb8b8"
     id="circle124" />
  <path
     d="M403.28154,286.61107c-1.16932-1.66977-7.1-22.06742-9.69852-28.32846-.26587,1.34556-3.24581,6.56249-3.31559,7.95076l-.02586.51428-.51068.06617c-.76811.098-18.91063,2.30014-28.35241-8.406-5.594-6.34164-6.86254-15.85379-3.77563-28.27783a4.92479,4.92479,0,0,1-1.58977-.61233,6.82673,6.82673,0,0,1-2.91007-4.95818l-.52271.14015c-2.66225.71819-5.665,1.66857-7.60479,3.86225-2.1594,2.43969-2.54376,5.75457-2.95157,9.26374a40.03684,40.03684,0,0,1-.791,4.981c-1.31549,5.30705-5.01894,10.27787-11.00749,14.7747-6.02886,4.52751-12.17561,7.11758-18.27,7.69682-7.19818.68692-14.14011-1.67819-18.56356-6.32118-4.93292-5.17653-6.22315-13.141-3.06887-18.9371l.50767-.93354.55759.90466c2.80782,4.557,8.94314,7.01833,14.92147,5.98375,5.126-.88661,10.2075-4.14134,14.30854-9.16449,3.74375-4.58525,6.326-10.00058,8.82344-15.23786,2.54014-5.3251,5.1663-10.83186,8.94915-15.50433,4.26706-5.27036,9.59216-8.71216,14.99485-9.6926,3.93443-.711,7.4454.095,9.63367,2.21593a9.17525,9.17525,0,0,1,2.57743,5.91157,7.41279,7.41279,0,0,1,4.05112.23278,7.5157,7.5157,0,0,1,4.63939,6.14916c7.9272-4.16962,18.4186-3.49112,23.84476-.36271,2.27187,1.31007,3.57653,2.96,3.80811,4.80059,6.409.35789,13.30222,6.60089,13.30222,15.446v.61594h-.61593c-5.07247,0-9.70344,2.91728-12.38795,7.80329a18.11866,18.11866,0,0,0,.557,18.48717,26.06782,26.06782,0,0,1,3.597,19.93079l-2.31458,10.14193Z"
     transform="translate(-207.41698 -196.12291)"
     fill="#2f2e41"
     id="path126" />
  <path
     d="M431.59815,378.86464l-16.26025-9.14648C386.98341,350.06484,379.999,334.45742,379.126,324.8207c-.93165-10.28223,4.54638-15.90625,4.78027-16.13965l.12646-.09277,14.65772-7.48926a14.75225,14.75225,0,0,1,20.57568,8.0957l13.55811,37.28809L447.856,335.39589l6.41064-2.52636,5.17285-6.917,14.207-8.28613,10.5542,9.499-13.273,26.54493-7.374,1.87793-1.564,4.02832-.13916.08886Z"
     transform="translate(-207.41698 -196.12291)"
     fill="#6c63ff"
     id="path128" />
</svg>
