<?xml version="1.0" encoding="UTF-8" standalone="no"?>
<svg
   data-name="Layer 1"
   width="855.41839"
   height="610.77534"
   viewBox="0 0 855.41839 610.77534"
   version="1.1"
   id="svg36274"
   sodipodi:docname="undraw_data_processing_yrrv.svg"
   inkscape:version="1.1.2 (0a00cf5339, 2022-02-04)"
   xmlns:inkscape="http://www.inkscape.org/namespaces/inkscape"
   xmlns:sodipodi="http://sodipodi.sourceforge.net/DTD/sodipodi-0.dtd"
   xmlns="http://www.w3.org/2000/svg"
   xmlns:svg="http://www.w3.org/2000/svg">
  <defs
     id="defs36278" />
  <sodipodi:namedview
     id="namedview36276"
     pagecolor="#ffffff"
     bordercolor="#666666"
     borderopacity="1.0"
     inkscape:pageshadow="2"
     inkscape:pageopacity="0.0"
     inkscape:pagecheckerboard="0"
     showgrid="false"
     inkscape:zoom="0.52719877"
     inkscape:cx="152.69383"
     inkscape:cy="272.19335"
     inkscape:window-width="1920"
     inkscape:window-height="1056"
     inkscape:window-x="1920"
     inkscape:window-y="1080"
     inkscape:window-maximized="1"
     inkscape:current-layer="layer7"
     inkscape:snap-global="false" />
  <g
     inkscape:groupmode="layer"
     id="layer7"
     inkscape:label="Layer 1">
    <rect
       style="fill:#ffffff;stroke-width:2.5"
       id="rect40088"
       width="75.016418"
       height="77.397667"
       x="42.181377"
       y="6.2398024" />
    <rect
       style="fill:#ffffff;stroke-width:2.5"
       id="rect40246"
       width="79.125969"
       height="58.536053"
       x="155.6256"
       y="23.991592" />
    <rect
       style="fill:#ffffff;stroke-width:2.5"
       id="rect40248"
       width="74.653023"
       height="76.665031"
       x="273.19403"
       y="5.9168534" />
    <rect
       style="fill:#ffffff;stroke-width:2.5"
       id="rect40250"
       width="75.546158"
       height="77.12973"
       x="502.58191"
       y="138.21686" />
    <rect
       style="fill:#ffffff;stroke-width:2.5"
       id="rect40246-7"
       width="79.125969"
       height="58.536053"
       x="399.23825"
       y="-73.613693"
       transform="rotate(15.225323)" />
  </g>
  <g
     inkscape:groupmode="layer"
     id="layer8"
     inkscape:label="Layer 2">
    <circle
       cx="78.722572"
       cy="114.1636"
       r="13.63057"
       fill="#e6e6e6"
       id="circle36160" />
    <circle
       cx="119.61428"
       cy="114.1636"
       r="13.63057"
       fill="#e6e6e6"
       id="circle36162" />
    <circle
       cx="160.50598"
       cy="114.1636"
       r="13.63057"
       fill="#e6e6e6"
       id="circle36164" />
    <circle
       cx="201.39769"
       cy="114.1636"
       r="13.63057"
       fill="#e6e6e6"
       id="circle36166" />
    <circle
       cx="242.28938"
       cy="114.1636"
       r="13.63057"
       fill="#e6e6e6"
       id="circle36168" />
    <circle
       cx="283.18106"
       cy="114.1636"
       r="13.63057"
       fill="#e6e6e6"
       id="circle36170" />
    <circle
       cx="324.07278"
       cy="114.1636"
       r="13.63057"
       fill="#e6e6e6"
       id="circle36172" />
    <path
       d="M 355.57037,130.76248 H 47.224989 a 5.55346,5.55346 0 0 1 -5.54693,-5.54693 v -22.10376 a 5.55345,5.55345 0 0 1 5.54693,-5.546931 H 355.57037 a 5.55346,5.55346 0 0 1 5.54693,5.546931 v 22.10376 a 5.55347,5.55347 0 0 1 -5.54693,5.54693 z M 47.224989,99.783649 a 3.3318,3.3318 0 0 0 -3.32816,3.328161 v 22.10374 a 3.3318,3.3318 0 0 0 3.32816,3.32815 H 355.57037 a 3.33179,3.33179 0 0 0 3.32815,-3.32815 v -22.10376 a 3.33179,3.33179 0 0 0 -3.32815,-3.328161 z"
       fill="#e6e6e6"
       id="path36174" />
    <path
       d="m 113.21284,6.6240292 a 3.19065,3.19065 0 0 1 3.187,3.187 V 78.873649 a 3.19065,3.19065 0 0 1 -3.187,3.187 H 45.560839 a 3.19065,3.19065 0 0 1 -3.187,-3.187 V 9.8110792 a 3.19065,3.19065 0 0 1 3.187,-3.187 h 67.652001 m 0,-3.18705 H 45.560839 a 6.3741,6.3741 0 0 0 -6.3741,6.3741 V 78.873649 a 6.3741,6.3741 0 0 0 6.3741,6.3741 h 67.652001 a 6.37411,6.37411 0 0 0 6.3741,-6.3741 V 9.8110792 a 6.37411,6.37411 0 0 0 -6.3741,-6.3741 z"
       fill="#e6e6e6"
       id="path36176" />
    <path
       d="M 102.66059,24.777579 H 57.523679 a 1.59353,1.59353 0 1 1 0,-3.187 h 45.136911 a 1.59353,1.59353 0 1 1 0,3.187 z"
       fill="#6c63ff"
       id="path36178" />
    <path
       d="M 102.66059,36.062199 H 57.523679 a 1.59353,1.59353 0 1 1 0,-3.187 h 45.136911 a 1.59353,1.59353 0 1 1 0,3.187 z"
       fill="#6c63ff"
       id="path36180" />
    <path
       d="M 102.66059,47.346039 H 57.523679 a 1.59353,1.59353 0 1 1 0,-3.187 h 45.136911 a 1.59353,1.59353 0 1 1 0,3.187 z"
       fill="#6c63ff"
       id="path36182" />
    <path
       d="M 102.66059,58.630649 H 57.523679 a 1.59353,1.59353 0 1 1 0,-3.187 h 45.136911 a 1.59353,1.59353 0 1 1 0,3.187 z"
       fill="#6c63ff"
       id="path36184" />
    <path
       d="M 102.66059,69.915279 H 57.523679 a 1.59353,1.59353 0 1 1 0,-3.18706 h 45.136911 a 1.59353,1.59353 0 0 1 0,3.18706 z"
       fill="#6c63ff"
       id="path36186" />
    <path
       d="m 344.27402,6.6240292 a 3.19065,3.19065 0 0 1 3.187,3.187 V 78.873649 a 3.19065,3.19065 0 0 1 -3.187,3.187 h -67.652 a 3.19065,3.19065 0 0 1 -3.187,-3.187 V 9.8110792 a 3.19065,3.19065 0 0 1 3.187,-3.187 h 67.652 m 0,-3.18705 h -67.652 a 6.3741,6.3741 0 0 0 -6.3741,6.3741 V 78.873649 a 6.3741,6.3741 0 0 0 6.3741,6.3741 h 67.652 a 6.3741,6.3741 0 0 0 6.3741,-6.3741 V 9.8110792 a 6.3741,6.3741 0 0 0 -6.3741,-6.3741 z"
       fill="#e6e6e6"
       id="path36188" />
    <path
       d="M 333.72178,24.777579 H 288.5849 a 1.59353,1.59353 0 1 1 0,-3.187 h 45.13692 a 1.59353,1.59353 0 0 1 0,3.187 z"
       fill="#6c63ff"
       id="path36190" />
    <path
       d="M 333.72178,36.062199 H 288.5849 a 1.59353,1.59353 0 1 1 0,-3.187 h 45.13692 a 1.59353,1.59353 0 0 1 0,3.187 z"
       fill="#6c63ff"
       id="path36192" />
    <path
       d="M 333.72178,47.346039 H 288.5849 a 1.59353,1.59353 0 1 1 0,-3.187 h 45.13692 a 1.59353,1.59353 0 0 1 0,3.187 z"
       fill="#6c63ff"
       id="path36194" />
    <path
       d="M 333.72178,58.630649 H 288.5849 a 1.59353,1.59353 0 1 1 0,-3.187 h 45.13692 a 1.59353,1.59353 0 0 1 0,3.187 z"
       fill="#6c63ff"
       id="path36196" />
    <path
       d="M 333.72178,69.915279 H 288.5849 a 1.59353,1.59353 0 1 1 0,-3.18706 h 45.13692 a 1.59353,1.59353 0 0 1 0,3.18706 z"
       fill="#6c63ff"
       id="path36198" />
    <path
       d="m 574.2129,139.41542 a 3.19065,3.19065 0 0 1 3.187,3.187 v 69.06255 a 3.19066,3.19066 0 0 1 -3.187,3.187 h -67.652 a 3.19066,3.19066 0 0 1 -3.187,-3.187 v -69.0625 a 3.19065,3.19065 0 0 1 3.187,-3.187 h 67.652 m 0,-3.187 h -67.652 a 6.3741,6.3741 0 0 0 -6.3741,6.3741 v 69.06255 a 6.3741,6.3741 0 0 0 6.3741,6.3741 h 67.652 a 6.37411,6.37411 0 0 0 6.3741,-6.3741 v -69.06265 a 6.3741,6.3741 0 0 0 -6.3741,-6.3741 z"
       fill="#6c63ff"
       id="path36200" />
    <path
       d="m 563.66066,157.56897 h -45.13692 a 1.59353,1.59353 0 1 1 0,-3.187 h 45.13692 a 1.59353,1.59353 0 0 1 0,3.187 z"
       fill="#6c63ff"
       id="path36202" />
    <path
       d="m 563.66066,168.85359 h -45.13692 a 1.59353,1.59353 0 0 1 0,-3.18706 h 45.13692 a 1.59353,1.59353 0 0 1 0,3.18706 z"
       fill="#6c63ff"
       id="path36204" />
    <path
       d="m 563.66066,180.13743 h -45.13692 a 1.59352,1.59352 0 1 1 0,-3.187 h 45.13692 a 1.59353,1.59353 0 0 1 0,3.187 z"
       fill="#6c63ff"
       id="path36206" />
    <path
       d="m 563.66066,191.42204 h -45.13692 a 1.59353,1.59353 0 1 1 0,-3.187 h 45.13692 a 1.59353,1.59353 0 0 1 0,3.187 z"
       fill="#6c63ff"
       id="path36208" />
    <path
       d="m 563.66066,202.70665 h -45.13692 a 1.59353,1.59353 0 1 1 0,-3.187 h 45.13692 a 1.59353,1.59353 0 0 1 0,3.187 z"
       fill="#6c63ff"
       id="path36210" />
    <path
       d="m 229.62872,85.247729 h -69.42339 a 7.08972,7.08972 0 0 1 -7.08139,-7.08138 v -49.67629 a 7.08988,7.08988 0 0 1 7.08139,-7.08216 h 69.42339 a 7.09,7.09 0 0 1 7.08217,7.08216 v 49.67629 a 7.08988,7.08988 0 0 1 -7.08217,7.08138 z m -69.42339,-60.65278 a 3.89917,3.89917 0 0 0 -3.89434,3.89511 v 49.67629 a 3.89851,3.89851 0 0 0 3.89434,3.89433 h 69.42339 a 3.89917,3.89917 0 0 0 3.89511,-3.89433 v -49.67629 a 3.89983,3.89983 0 0 0 -3.89511,-3.89511 z"
       fill="#e6e6e6"
       id="path36212" />
    <path
       d="m 217.4859,43.637109 h -45.13695 a 1.59353,1.59353 0 0 1 0,-3.187 h 45.13695 a 1.59353,1.59353 0 1 1 0,3.187 z"
       fill="#6c63ff"
       id="path36214" />
    <path
       d="m 217.4859,54.921729 h -45.13695 a 1.59353,1.59353 0 0 1 0,-3.187 h 45.13695 a 1.59353,1.59353 0 1 1 0,3.187 z"
       fill="#6c63ff"
       id="path36216" />
    <path
       d="m 217.4859,66.205569 h -45.13695 a 1.59353,1.59353 0 0 1 0,-3.187 h 45.13695 a 1.59353,1.59353 0 1 1 0,3.187 z"
       fill="#6c63ff"
       id="path36218" />
    <path
       d="M 459.98701,112.7749 393.31076,93.438749 a 7.08971,7.08971 0 0 1 -4.82882,-8.77351 l 13.83608,-47.71054 a 7.08988,7.08988 0 0 1 8.77372,-4.82958 l 66.67625,19.33615 a 7.09,7.09 0 0 1 4.82935,8.77447 l -13.83608,47.710551 a 7.08988,7.08988 0 0 1 -8.77425,4.82861 z M 410.20407,35.186059 a 3.89916,3.89916 0 0 0 -4.82511,2.65631 l -13.83606,47.71055 a 3.89851,3.89851 0 0 0 2.65557,4.8249 l 66.67624,19.336141 a 3.89918,3.89918 0 0 0 4.82565,-2.65535 l 13.83608,-47.710541 a 3.89985,3.89985 0 0 0 -2.65609,-4.82587 z"
       fill="#e6e6e6"
       id="path36220" />
    <path
       d="m 459.91425,69.428759 -43.3508,-12.57175 a 1.59353,1.59353 0 0 1 0.88767,-3.06094 l 43.35078,12.57176 a 1.5935235,1.5935235 0 1 1 -0.88768,3.06093 z"
       fill="#6c63ff"
       id="path36222" />
    <path
       d="M 456.77121,80.266839 413.4204,67.695079 a 1.5935221,1.5935221 0 1 1 0.88767,-3.06093 l 43.35083,12.57175 a 1.59353,1.59353 0 0 1 -0.88767,3.06094 z"
       fill="#6c63ff"
       id="path36224" />
    <path
       d="m 453.62838,91.104159 -43.35081,-12.57175 a 1.59353,1.59353 0 0 1 0.88767,-3.06094 l 43.35081,12.57176 a 1.5935221,1.5935221 0 0 1 -0.88767,3.06093 z"
       fill="#6c63ff"
       id="path36226" />
    <polygon
       points="558.285,552.973 562.14,603.085 448.421,603.085 452.276,552.973 "
       fill="#e6e6e6"
       id="polygon36230"
       transform="translate(39.186709,3.4369832)" />
    <rect
       x="481.82547"
       y="600.74036"
       width="127.21043"
       height="11.5646"
       fill="#e6e6e6"
       id="rect36232" />
    <path
       d="M 762.26663,233.56486 H 327.63104 a 11.56458,11.56458 0 0 0 -11.56458,11.56458 v 0 265.02171 H 773.83123 V 245.12944 a 11.56457,11.56457 0 0 0 -11.56456,-11.56458 z"
       fill="#3f3d56"
       id="path36234" />
    <path
       d="m 316.06646,510.15115 v 43.36719 a 11.56457,11.56457 0 0 0 11.56458,11.56457 h 434.63559 a 11.56459,11.56459 0 0 0 11.5646,-11.56457 v 0 -43.36719 z"
       fill="#e6e6e6"
       id="path36236" />
    <rect
       x="339.19562"
       y="257.65775"
       width="412.47015"
       height="231.29169"
       fill="#e6e6e6"
       id="rect36238" />
    <circle
       cx="545.43073"
       cy="537.13513"
       r="11.56459"
       fill="#3f3d56"
       id="circle36240" />
    <circle
       cx="352.05658"
       cy="265.23233"
       r="2.1946599"
       fill="#ffffff"
       id="circle36242" />
    <circle
       cx="360.38696"
       cy="265.23233"
       r="2.1946599"
       fill="#ffffff"
       id="circle36244" />
    <circle
       cx="368.71735"
       cy="265.23233"
       r="2.1946599"
       fill="#ffffff"
       id="circle36246" />
    <rect
       x="349.86191"
       y="272.68973"
       width="389.91608"
       height="194.24707"
       fill="#ffffff"
       id="rect36248" />
    <path
       d="m 375.7809,302.23576 a 1.37973,1.37973 0 0 0 -1.37842,1.37842 v 69.67578 a 1.37973,1.37973 0 0 0 1.37842,1.37841 h 80.4643 a 1.37973,1.37973 0 0 0 1.37842,-1.37841 v -69.67578 a 1.37973,1.37973 0 0 0 -1.37842,-1.37842 z"
       fill="#e6e6e6"
       id="path36250" />
    <path
       d="m 504.97665,302.45988 a 1.37984,1.37984 0 0 0 -1.37891,1.37842 v 69.45166 a 1.37984,1.37984 0 0 0 1.37891,1.37841 h 80.208 a 1.37963,1.37963 0 0 0 1.37793,-1.37841 V 303.8383 a 1.37963,1.37963 0 0 0 -1.37793,-1.37842 z"
       fill="#e6e6e6"
       id="path36252" />
    <path
       d="m 632.81747,301.73185 a 1.37963,1.37963 0 0 0 -1.37793,1.37842 v 70.17969 a 1.37962,1.37962 0 0 0 1.37793,1.37841 h 81.042 a 1.37962,1.37962 0 0 0 1.37793,-1.37841 v -70.17969 a 1.37963,1.37963 0 0 0 -1.37793,-1.37842 z"
       fill="#e6e6e6"
       id="path36254" />
    <path
       d="m 377.25204,409.15765 a 2.84986,2.84986 0 0 0 0,5.69971 h 75.65234 a 2.84986,2.84986 0 0 0 0,-5.69971 z"
       fill="#e6e6e6"
       id="path36256" />
    <path
       d="m 377.25204,422.7133 a 2.8501,2.8501 0 0 0 0,5.70019 h 34.062 a 2.8501,2.8501 0 0 0 0,-5.70019 z"
       fill="#6c63ff"
       id="path36258" />
    <path
       d="m 507.83602,409.15765 a 2.84986,2.84986 0 0 0 0,5.69971 h 75.65235 a 2.84986,2.84986 0 0 0 0,-5.69971 z"
       fill="#e6e6e6"
       id="path36260" />
    <path
       d="m 507.83602,422.7133 a 2.8501,2.8501 0 0 0 0,5.70019 h 34.0625 a 2.8501,2.8501 0 0 0 0,-5.70019 z"
       fill="#6c63ff"
       id="path36262" />
    <path
       d="m 635.15634,409.15765 a 2.84986,2.84986 0 0 0 0,5.69971 h 75.65234 a 2.84986,2.84986 0 0 0 0,-5.69971 z"
       fill="#e6e6e6"
       id="path36264" />
    <path
       d="m 377.25204,395.15765 a 2.84986,2.84986 0 0 0 0,5.69971 h 75.65234 a 2.84986,2.84986 0 0 0 0,-5.69971 z"
       fill="#e6e6e6"
       id="path36266" />
    <path
       d="m 507.83602,395.15765 a 2.84986,2.84986 0 0 0 0,5.69971 h 75.65235 a 2.84986,2.84986 0 0 0 0,-5.69971 z"
       fill="#e6e6e6"
       id="path36268" />
    <path
       d="m 635.15634,395.15765 a 2.84986,2.84986 0 0 0 0,5.69971 h 75.65234 a 2.84986,2.84986 0 0 0 0,-5.69971 z"
       fill="#e6e6e6"
       id="path36270" />
    <path
       d="m 635.15634,422.7133 a 2.8501,2.8501 0 0 0 0,5.70019 h 34.06156 a 2.8501,2.8501 0 0 0 0,-5.70019 z"
       fill="#6c63ff"
       id="path36272" />
  </g>
</svg>
