<?xml version="1.0" encoding="UTF-8" standalone="no"?>
<svg
   data-name="Layer 1"
   width="872.69856"
   height="590.1815"
   viewBox="0 0 872.69856 590.1815"
   version="1.1"
   id="svg166"
   sodipodi:docname="undraw_team_spirit_re_yl1v.svg"
   inkscape:version="1.1.2 (0a00cf5339, 2022-02-04)"
   xmlns:inkscape="http://www.inkscape.org/namespaces/inkscape"
   xmlns:sodipodi="http://sodipodi.sourceforge.net/DTD/sodipodi-0.dtd"
   xmlns="http://www.w3.org/2000/svg"
   xmlns:svg="http://www.w3.org/2000/svg">
  <defs
     id="defs170" />
  <sodipodi:namedview
     id="namedview168"
     pagecolor="#ffffff"
     bordercolor="#666666"
     borderopacity="1.0"
     inkscape:pageshadow="2"
     inkscape:pageopacity="0.0"
     inkscape:pagecheckerboard="0"
     showgrid="false"
     inkscape:zoom="1.0911897"
     inkscape:cx="436.67934"
     inkscape:cy="294.63254"
     inkscape:window-width="2560"
     inkscape:window-height="1026"
     inkscape:window-x="1600"
     inkscape:window-y="0"
     inkscape:window-maximized="1"
     inkscape:current-layer="svg166" />
  <path
     d="M527.68913,460.73774a9.7602,9.7602,0,0,0-1.28155-14.91116l15.93205-77.10664-17.18884,5.42263-12.81825,74.59458a9.81312,9.81312,0,0,0,15.35659,12.00059Z"
     transform="translate(-163.65072 -154.90925)"
     fill="#ffb6b6"
     id="path44" />
  <path
     d="M564.51521,254.62848l-10.64763-8.03739s-9.39288-.66516-11.05643,16.27377S530.73168,344.815,530.73168,344.815l-16.293,75.46287,22.55392,4.95047,17.451-81.43776,17.46888-56.18394Z"
     transform="translate(-163.65072 -154.90925)"
     fill="#e6e6e6"
     id="path46" />
  <path
     d="M556.4035,394.26194l-51.07505-39.71349a3.8086,3.8086,0,0,1-.66807-5.33844l34.751-44.69285a3.80859,3.80859,0,0,1,5.33842-.668l51.075,39.71348a3.80859,3.80859,0,0,1,.66808,5.33842l-34.751,44.69286A3.80859,3.80859,0,0,1,556.4035,394.26194Z"
     transform="translate(-163.65072 -154.90925)"
     fill="#3f3d56"
     id="path48" />
  <path
     d="M556.12277,390.1524l-46.74234-36.34458a3.38161,3.38161,0,0,1-.59317-4.73994L540.2906,308.5518a3.38162,3.38162,0,0,1,4.73994-.59317l46.74234,36.34458a3.38162,3.38162,0,0,1,.59317,4.73994l-31.50334,40.51608A3.38162,3.38162,0,0,1,556.12277,390.1524Z"
     transform="translate(-163.65072 -154.90925)"
     fill="#fff"
     id="path50" />
  <path
     d="M515.50831,352.77719a.84532.84532,0,0,1-.14822-1.1849l15.89251-20.43918a.84438.84438,0,1,1,1.33318,1.03661L516.69326,352.6289A.84539.84539,0,0,1,515.50831,352.77719Z"
     transform="translate(-163.65072 -154.90925)"
     fill="#e4e4e4"
     id="path52" />
  <path
     d="M518.14234,354.82529a.8454.8454,0,0,1-.14829-1.185l15.89252-20.43918a.84442.84442,0,1,1,1.33324,1.03666L519.32729,354.677A.8454.8454,0,0,1,518.14234,354.82529Z"
     transform="translate(-163.65072 -154.90925)"
     fill="#e4e4e4"
     id="path54" />
  <path
     d="M529.77986,345.29409a.8454.8454,0,0,1-.14829-1.185l6.889-8.85989a.84443.84443,0,1,1,1.33325,1.03667l-6.889,8.85989A.8454.8454,0,0,1,529.77986,345.29409Z"
     transform="translate(-163.65072 -154.90925)"
     fill="#e4e4e4"
     id="path56" />
  <path
     d="M533.33129,362.6806a.84533.84533,0,0,1-.14822-1.1849l25.08934-32.26711a.84438.84438,0,1,1,1.33318,1.03661l-25.08934,32.26711A.8454.8454,0,0,1,533.33129,362.6806Z"
     transform="translate(-163.65072 -154.90925)"
     fill="#e4e4e4"
     id="path58" />
  <path
     d="M535.96532,364.7287a.8454.8454,0,0,1-.14829-1.185l25.08934-32.26711a.84442.84442,0,1,1,1.33324,1.03667l-25.08934,32.26711A.8454.8454,0,0,1,535.96532,364.7287Z"
     transform="translate(-163.65072 -154.90925)"
     fill="#e4e4e4"
     id="path60" />
  <path
     d="M541.94445,369.37778a.84533.84533,0,0,1-.14823-1.18491l25.08935-32.26711a.84438.84438,0,1,1,1.33317,1.03662L543.1294,369.22949A.8454.8454,0,0,1,541.94445,369.37778Z"
     transform="translate(-163.65072 -154.90925)"
     fill="#e4e4e4"
     id="path62" />
  <path
     d="M544.57847,371.42587a.8454.8454,0,0,1-.14828-1.185l25.08934-32.26711a.84442.84442,0,1,1,1.33324,1.03667l-25.08934,32.26711A.84541.84541,0,0,1,544.57847,371.42587Z"
     transform="translate(-163.65072 -154.90925)"
     fill="#e4e4e4"
     id="path64" />
  <path
     d="M550.5576,376.075a.84533.84533,0,0,1-.14822-1.1849l25.08934-32.26711a.84438.84438,0,1,1,1.33318,1.03661l-25.08934,32.26711A.8454.8454,0,0,1,550.5576,376.075Z"
     transform="translate(-163.65072 -154.90925)"
     fill="#e4e4e4"
     id="path66" />
  <path
     d="M553.19163,378.123a.8454.8454,0,0,1-.14829-1.185L578.13268,344.671a.84443.84443,0,0,1,1.33325,1.03666l-25.08934,32.26711A.8454.8454,0,0,1,553.19163,378.123Z"
     transform="translate(-163.65072 -154.90925)"
     fill="#e4e4e4"
     id="path68" />
  <circle
     cx="347.60837"
     cy="260.34038"
     r="0.34668"
     fill="#fff"
     id="circle70" />
  <path
     d="M561.77832,176.70558a83.478,83.478,0,0,1-5.95615,19.01018c-15.67331,33.15667,28.96133,22.34931,44.91224,22.34931,17.44,0,34.12644,9.17073,31.5779-31.57791-1.08862-17.406-14.13791-31.57791-31.5779-31.57791C585.83774,154.90925,564.89327,161.53052,561.77832,176.70558Z"
     transform="translate(-163.65072 -154.90925)"
     fill="#2f2e41"
     id="path72" />
  <polygon
     points="453.34 508.085 438.481 508.085 431.41 450.772 453.34 450.772 453.34 508.085"
     fill="#ffb6b6"
     id="polygon74" />
  <path
     d="M624.83334,688.73931H614.17746l-1.902-10.06041-4.87138,10.06041H579.14211a6.353,6.353,0,0,1-3.61-11.581l22.56915-15.58706V651.40053l23.73881,1.41689Z"
     transform="translate(-163.65072 -154.90925)"
     fill="#2f2e41"
     id="path76" />
  <polygon
     points="541.617 489.333 529.693 498.2 489.82 456.429 507.418 443.342 541.617 489.333"
     fill="#ffb6b6"
     id="polygon78" />
  <path
     d="M726.92339,660.22174l-8.55085,6.35853-7.52949-6.93805,2.09416,10.97984-22.67889,16.86433a6.353,6.353,0,0,1-9.8074-7.139l8.80965-25.97524-6.069-8.16154,19.89476-13.02833Z"
     transform="translate(-163.65072 -154.90925)"
     fill="#2f2e41"
     id="path80" />
  <polygon
     points="404.675 244.313 475.21 233.327 461.183 191.129 404.675 191.129 404.675 244.313"
     fill="#ffb6b6"
     id="polygon82" />
  <path
     d="M634.29015,367.29129s28.19257,24.35707,15.18486,93.793L633.59466,529.1199l43.26619,75.1159-22,12-53.3178-74.10511L577.145,484.90063,564.23959,384.59926Z"
     transform="translate(-163.65072 -154.90925)"
     fill="#2f2e41"
     id="path84" />
  <polygon
     points="426.942 346.301 425.246 372.562 430.21 450.327 454.854 458.812 459.521 379.134 426.942 346.301"
     fill="#2f2e41"
     id="polygon86" />
  <path
     d="M583.01607,226.805l27.265,1.06368,10.86628,18.03756,24.79184,4.8398L631.13917,325.619l2.72168,42.61685-24.686-.15055a72.20679,72.20679,0,0,0-48.314,18.15053l0,0,.73849-55.31995-10.61822-41.2957,2.38645-43.30117,19.94392-2.493Z"
     transform="translate(-163.65072 -154.90925)"
     fill="#e6e6e6"
     id="path88" />
  <circle
     cx="434.47067"
     cy="37.48738"
     r="25.66061"
     fill="#ffb6b6"
     id="circle90" />
  <path
     d="M580.69521,166.23918a29.39342,29.39342,0,0,1,44.68839,25.6527c-13.07541,3.28285-26.812,5.79511-40.75593.78522l-3.293-8.05928-1.94138,8.06525c-4.24641,1.73567-8.50383,3.20423-12.76122-.01676A30.01235,30.01235,0,0,1,580.69521,166.23918Z"
     transform="translate(-163.65072 -154.90925)"
     fill="#2f2e41"
     id="path92" />
  <path
     d="M641.1932,419.97065l3.45911,31.39253a3.8317,3.8317,0,0,0,3.66239,2.7052h15.94517a3.83183,3.83183,0,0,0,3.6628-2.7052l2.86508-24.06084a5.81932,5.81932,0,1,0,1.5005-10.94681,3.79764,3.79764,0,0,0-2.90727-1.344H644.856A3.8324,3.8324,0,0,0,641.1932,419.97065Zm30.09526,5.70459,1.75491-5.70459a3.79234,3.79234,0,0,0,.058-2.0283c.07506-.004.14566-.02236.22154-.02236a4.155,4.155,0,1,1,0,8.31A4.10246,4.10246,0,0,1,671.28846,425.67524Z"
     transform="translate(-163.65072 -154.90925)"
     fill="#6c63ff"
     id="path94" />
  <path
     d="M665.23736,454.09a9.76017,9.76017,0,0,1,1.35729-14.90446L651.05459,361.999l17.16107,5.50989,12.43906,74.65875A9.81312,9.81312,0,0,1,665.23736,454.09Z"
     transform="translate(-163.65072 -154.90925)"
     fill="#ffb6b6"
     id="path96" />
  <path
     d="M635.29161,258.78347l10.64762-8.03739s9.39289-.66516,11.05643,16.27377S669.07514,348.97,669.07514,348.97l16.293,75.46286-22.55393,4.95048-17.451-81.43776-17.46887-56.18395Z"
     transform="translate(-163.65072 -154.90925)"
     fill="#e6e6e6"
     id="path98" />
  <circle
     cx="379.74486"
     cy="168.11016"
     r="6.0273"
     fill="#6c63ff"
     id="circle100" />
  <polygon
     points="187.545 578.006 200.106 578.005 206.082 529.556 187.543 529.557 187.545 578.006"
     fill="#ffb6b6"
     id="polygon102" />
  <path
     d="M347.99177,728.81386l3.53554-.00014,13.80331-5.61348,7.39816,5.61262h.001A15.7652,15.7652,0,0,1,388.49413,744.577v.51228l-40.50161.0015Z"
     transform="translate(-163.65072 -154.90925)"
     fill="#2f2e41"
     id="path104" />
  <polygon
     points="236.221 570.09 248.474 572.857 264.975 526.914 246.891 522.831 236.221 570.09"
     fill="#ffb6b6"
     id="polygon106" />
  <path
     d="M397.6499,720.29336l3.44873.77866,14.70079-2.435,5.9801,7.10442.001.00022a15.76519,15.76519,0,0,1,11.90465,18.84943l-.11284.4997-39.5071-8.92015Z"
     transform="translate(-163.65072 -154.90925)"
     fill="#2f2e41"
     id="path108" />
  <path
     d="M328.20043,483.69941,339.559,610.95923s-4.25592,76.40091,9.47714,103.28585h19.91672L378.814,603.982l1.23829-74.00925,42.69938,62.43884L395.55512,712.44236l24.51278,2.19137,44.1327-130.26128L415.71519,462.0877Z"
     transform="translate(-163.65072 -154.90925)"
     fill="#2f2e41"
     id="path110" />
  <circle
     cx="176.44572"
     cy="96.83859"
     r="29.29298"
     fill="#ffb8b8"
     id="circle112" />
  <path
     d="M391.59121,308.95558l-24.03158-10.31125L355.86085,286.2358l-29.22515,4.71335-7.75408,13.2953-25.10115,23.34031,29.40888,132.97333-.89022,29.04262s18.82249,8.47369,100.4525-11.0362c.97887-.23395-1.07025-1.25851-1.07025-1.25851Z"
     transform="translate(-163.65072 -154.90925)"
     fill="#3f3d56"
     id="path114" />
  <path
     d="M309.63622,268.36932q-.30616-.41779-.60633-.84265c-.08055.17009-.14458.34581-.23663.5119Z"
     transform="translate(-163.65072 -154.90925)"
     fill="#2f2e41"
     id="path116" />
  <path
     d="M369.23525,230.32123a18.691,18.691,0,0,0-9.77984-9.448,17.84452,17.84452,0,0,0-13.3788.0117c-3.87261-2.44671-8.17546-4.3864-12.70694-4.62665s-9.32258,1.44091-12.11511,5.14155a19.77552,19.77552,0,0,1-2.11665,2.74982c-2.24473,2.07876-5.65609,1.77891-8.63972,1.35386q2.00734,1.72041,4.01569,3.44082-2.42982.63476-4.86015,1.26957,2.8358,1.71984,5.67109,3.43969c-5.488,3.294-7.98235,10.48359-7.32349,17.01328.62334,6.18207,3.608,11.83515,7.17591,16.85977,1.42328-3.00352,1.11661-6.59741,1.0931-9.9802-.02451-3.57426.60783-7.633,3.4719-9.63057,1.93205-1.34748,4.41641-1.40764,6.74618-1.39489a309.93772,309.93772,0,0,1,35.15919,2.195,9.89742,9.89742,0,0,1,4.50146,1.30559c2.58041,1.7604,3.08318,5.39332,3.34232,8.5805a62.17247,62.17247,0,0,0,1.98459-16.11718A29.707,29.707,0,0,0,369.23525,230.32123Z"
     transform="translate(-163.65072 -154.90925)"
     fill="#2f2e41"
     id="path118" />
  <circle
     cx="214.70446"
     cy="371.89487"
     r="46.10517"
     fill="#fff"
     id="circle120" />
  <path
     d="M378.35518,479.67439a47.38272,47.38272,0,0,0-7.07986.53279c-1.19866.17416-2.3663.39953-3.52443.67618a47.10623,47.10623,0,0,0-19.9684,81.75982c.78893.666,1.58787,1.31147,2.41782,1.92618a47.11955,47.11955,0,1,0,28.15487-84.895Zm0,92.21034a44.82077,44.82077,0,0,1-26.63854-8.73952c-.84-.61471-1.6494-1.24993-2.43833-1.92612a45.054,45.054,0,0,1,20.102-78.594c1.14713-.23563,2.29475-.42011,3.46289-.5635a44.60159,44.60159,0,0,1,5.512-.33812,45.08061,45.08061,0,0,1,0,90.16122Z"
     transform="translate(-163.65072 -154.90925)"
     fill="#3f3d56"
     id="path122" />
  <rect
     x="352.7412"
     y="511.43573"
     width="51.22797"
     height="6.14736"
     rx="3"
     transform="translate(593.05964 874.10957) rotate(-180)"
     fill="#6c63ff"
     id="rect124" />
  <rect
     x="352.7412"
     y="523.73044"
     width="51.22797"
     height="6.14736"
     rx="3"
     transform="translate(593.05964 898.69899) rotate(-180)"
     fill="#6c63ff"
     id="rect126" />
  <rect
     x="352.7412"
     y="536.02515"
     width="51.22797"
     height="6.14736"
     rx="3"
     transform="translate(593.05964 923.28841) rotate(180)"
     fill="#6c63ff"
     id="rect128" />
  <polygon
     points="730.52 576.442 717.349 576.441 711.083 525.639 730.522 525.64 730.52 576.442"
     fill="#9e616a"
     id="polygon130" />
  <polygon
     points="668.209 576.442 655.039 576.441 648.773 525.639 668.212 525.64 668.209 576.442"
     fill="#9e616a"
     id="polygon132" />
  <path
     d="M832.32388,745.09075l-40.50161-.0015V744.577a15.7652,15.7652,0,0,1,15.76435-15.76411h.001l7.39815-5.61262,13.80331,5.61348,3.53554.00014Z"
     transform="translate(-163.65072 -154.90925)"
     fill="#2f2e41"
     id="path134" />
  <path
     d="M896.32388,745.09075l-40.50161-.0015V744.577a15.7652,15.7652,0,0,1,15.76435-15.76411h.001l7.39815-5.61262,13.80331,5.61348,3.53554.00014Z"
     transform="translate(-163.65072 -154.90925)"
     fill="#2f2e41"
     id="path136" />
  <path
     d="M818.94053,430.688,798.92384,552.57208l5.4475,18.16285-7.14828,12.86356,10.49735,112.97019-4.26113,9.38122,11.90551,7.34244h24.226L840.8766,611.0196l5.98425-15.01584v-8.27559l12.18221-62.36358,2.243,87.33619,3.54358,15.03936L861.853,638.44826l3.88928,7.50193,10.33119,69.57064H903.2388l-2.101-16.18548,0,0a11.96212,11.96212,0,0,0,6.28056-13.23747l-1.55753-7.09411,3.54482-20.97638,6.45518-117.02362-1.82-94.42334L882.26243,422.2799Z"
     fill="#2f2e41"
     id="path138"
     transform="translate(-163.65072 -154.90925)" />
  <circle
     id="ab6171fa-7d69-4734-b81c-8dff60f9761b"
     data-name="Ellipse 219"
     cx="701.17891"
     cy="94.02611"
     r="25.23879"
     fill="#9e616a" />
  <path
     d="M809.68585,479.05516A10.80309,10.80309,0,0,0,807.956,462.5805l9.81446-37.11477-18.90872,6.36013-6.42107,34.26974a10.86162,10.86162,0,0,0,17.24514,12.95956Z"
     transform="translate(-163.65072 -154.90925)"
     fill="#9e616a"
     id="path141" />
  <path
     id="bc44dde2-a388-4b93-9ca4-c442728432a9-384"
     data-name="Path 1101"
     d="M820.01454,300.86037l-4.05878-.84225-3.46143,1.91657s-9.66884,12.89179-9.66884,24.70925S791.008,452.33885,791.008,452.33885l21.48631,9.66884,17.18905-89.16818Z"
     transform="translate(-163.65072 -154.90925)"
     fill="#e6e6e6" />
  <path
     id="bf427902-b9bf-4946-b5d7-5c1c7e04535e-385"
     data-name="Path 1104"
     d="M886.932,230.43073s6.60112-12.61939-7.92158-13.76661c0,0-12.38073-11.23091-25.00013-2.05317,0,0-6.8833,0-10.64736,7.78926,0,0-5.41369-2.05317-6.60337,3.44165,0,0-3.96134,11.4722,0,21.79716s5.27718,11.47218,5.27718,11.47218-6.50933-21.64684,9.33494-22.79406,33.57446-11.04885,34.89491,1.57053,3.30746,15.72869,3.30746,15.72869S902.11538,235.59323,886.932,230.43073Z"
     transform="translate(-163.65072 -154.90925)"
     fill="#2f2e41" />
  <path
     d="M979.12794,583.59849a7.72345,7.72345,0,0,1-5.16309-1.96973L897.584,513.63755a7.7892,7.7892,0,0,1-.63819-10.98438L945.876,447.6854a7.78883,7.78883,0,0,1,10.98486-.63867l76.38135,67.99219a7.7797,7.7797,0,0,1,.63818,10.9834l-48.93066,54.96777a7.72629,7.72629,0,0,1-5.36035,2.59473C979.43507,583.59458,979.28126,583.59849,979.12794,583.59849Z"
     transform="translate(-163.65072 -154.90925)"
     fill="#fff"
     id="path145" />
  <path
     d="M979.127,584.09849a8.21935,8.21935,0,0,1-5.49462-2.09571l-76.38086-67.99121a8.29118,8.29118,0,0,1-.6792-11.6914l48.93017-54.96778a8.292,8.292,0,0,1,11.69092-.67968l76.38135,67.99218a8.28151,8.28151,0,0,1,.6792,11.69043L985.32325,581.3231a8.22873,8.22873,0,0,1-5.70459,2.76172C979.45411,584.0936,979.29054,584.09849,979.127,584.09849Zm-27.436-137.51807a6.2639,6.2639,0,0,0-4.69434,2.10205l-48.93017,54.96777a6.28749,6.28749,0,0,0,.51513,8.86719l76.38086,67.99121a6.279,6.279,0,0,0,8.8667-.51562l48.93067-54.96778a6.28007,6.28007,0,0,0-.51514-8.86621l-76.38135-67.99218A6.25493,6.25493,0,0,0,951.69093,446.58042Z"
     transform="translate(-163.65072 -154.90925)"
     fill="#3f3d56"
     id="path147" />
  <path
     d="M1006.82521,531.54087a3.35252,3.35252,0,0,1-2.23682-.85059l-59.956-53.37109a3.36667,3.36667,0,1,1,4.477-5.0293l59.95654,53.3711a3.36555,3.36555,0,0,1-2.24072,5.87988Z"
     transform="translate(-163.65072 -154.90925)"
     fill="#6c63ff"
     id="path149" />
  <path
     d="M995.38917,544.38755a3.35256,3.35256,0,0,1-2.23682-.85059l-59.956-53.37109a3.3663,3.3663,0,1,1,4.47705-5.02832l59.95654,53.37109a3.36483,3.36483,0,0,1-2.24072,5.87891Z"
     transform="translate(-163.65072 -154.90925)"
     fill="#6c63ff"
     id="path151" />
  <path
     d="M983.95314,557.23618a3.35,3.35,0,0,1-2.23731-.85156L921.75929,503.0145a3.36683,3.36683,0,1,1,4.47754-5.02929l59.956,53.37109a3.36533,3.36533,0,0,1-2.23974,5.87988Z"
     transform="translate(-163.65072 -154.90925)"
     fill="#6c63ff"
     id="path153" />
  <path
     d="M915.38816,481.24574a10.8031,10.8031,0,0,1,5.91021-15.475l.0649-38.39044,16.63584,11.0109L935.387,473.15931a10.86163,10.86163,0,0,1-19.99887,8.08643Z"
     transform="translate(-163.65072 -154.90925)"
     fill="#9e616a"
     id="path155" />
  <path
     id="f348f81f-b961-4ae4-bc6b-758f6acfb12a-386"
     data-name="Path 1100"
     d="M916.92587,311.38058,924.358,304.217l5.45964,3.94059s5.37158,6.44589,9.66884,25.78357,0,125.6949,0,125.6949l-23.63494-3.22295,3.22294-55.8644-9.66883-47.26988Z"
     transform="translate(-163.65072 -154.90925)"
     fill="#e6e6e6" />
  <path
     d="M927.90022,305.96439l-25.03937-11.96063-17-15.768-31-.232-10,13-26.40012,8.96782,4.40012,91.03218-3,7s2.09005,1.88812,3.045,2.94406-1.31954,9.89651-1.31954,9.89651l-1.28239,9.618,3.5569,2.54145-4.624,5.462-1.148,8.60976s80.71507-20.06178,95.96621,13.17237c.80578,1.7559-1.17847-15.40493-1.17847-15.40493l-1.98425-12.563,1.9685-11.27614,3-3-5.0315-5.0315,3.22572-23.874Z"
     transform="translate(-163.65072 -154.90925)"
     fill="#3f3d56"
     id="path158" />
  <path
     d="M360.06046,507.77535a11.5995,11.5995,0,0,0-8.50359-15.622l-5.56223-40.84369-16.12742,14.09756,7.75449,36.62456a11.66236,11.66236,0,0,0,22.43875,5.74355Z"
     transform="translate(-163.65072 -154.90925)"
     fill="#ffb8b8"
     id="path160" />
  <path
     id="e1bf2fad-858c-4bea-9733-320cc40b59f5-387"
     data-name="Path 1101"
     d="M296.87532,326.83781l-4.37137.83734-2.6423,3.3266s-4.2746,16.7664.59485,28.48352,40.07614,129.49694,40.07614,129.49694l25.28795.73318L336.12144,394.2216Z"
     transform="translate(-163.65072 -154.90925)"
     fill="#3f3d56" />
  <path
     d="M396.56736,501.78391a11.59947,11.59947,0,0,1,2.06564-17.66608l-10.06768-39.97234,20.22082,7.06777,6.46037,36.87485a11.66236,11.66236,0,0,1-18.67915,13.6958Z"
     transform="translate(-163.65072 -154.90925)"
     fill="#ffb8b8"
     id="path163" />
  <path
     id="ff35f29e-9865-4218-824f-c5cf71e1b056-388"
     data-name="Path 1101"
     d="M387.73256,310.335l4.36835-.85293,3.6921,2.10152s10.21781,13.96355,10.06829,26.65134,11.09747,135.10145,11.09747,135.10145l-23.191,10.10907-17.32679-95.95261Z"
     transform="translate(-163.65072 -154.90925)"
     fill="#3f3d56" />
</svg>
